<svg width="70" height="64" viewBox="0 0 70 64" fill="none" xmlns="http://www.w3.org/2000/svg">
<g clip-path="url(#clip0_615_4758)">
<path d="M7.39342 51.5241H15.7673C16.114 51.5241 16.3931 51.245 16.3931 50.8983C16.3931 50.5516 16.114 50.2725 15.7673 50.2725H7.39342C7.04671 50.2725 6.76758 50.5516 6.76758 50.8983C6.76758 51.245 7.04671 51.5241 7.39342 51.5241Z" fill="#917145"/>
<path d="M53.4344 51.5241H61.8083C62.155 51.5241 62.4342 51.245 62.4342 50.8983C62.4342 50.5516 62.155 50.2725 61.8083 50.2725H53.4344C53.0877 50.2725 52.8086 50.5516 52.8086 50.8983C52.8086 51.245 53.0877 51.5241 53.4344 51.5241Z" fill="#917145"/>
<path d="M69.2036 62.7483H66.0979V56.9395H67.3172C67.52 56.9395 67.708 56.8425 67.8255 56.678C67.9431 56.5135 67.9725 56.3019 67.9078 56.1139L66.4534 51.8446C66.2183 51.1453 66.0979 50.4196 66.0979 49.688V37.183C66.0979 36.8363 65.8187 36.5572 65.472 36.5572H49.7703C49.4236 36.5572 49.1444 36.8363 49.1444 37.183V49.6851C49.1444 50.4196 49.024 51.1483 48.7889 51.8446L47.3345 56.1139C47.2699 56.3048 47.2992 56.5135 47.4168 56.678C47.5343 56.8425 47.7223 56.9395 47.9251 56.9395H49.1444V62.7483H35.2262V46.3855H42.9096C43.2563 46.3855 43.5354 46.1063 43.5354 45.7596C43.5354 45.4129 43.2563 45.1338 42.9096 45.1338H35.2262V26.3146C37.0478 26.2294 38.7667 25.6035 40.4268 24.9748C41.8195 24.4459 43.2563 23.9023 44.7019 23.7231C46.5236 23.4968 48.3335 23.8347 50.2492 24.1873C51.0366 24.3342 51.827 24.4811 52.6174 24.584C55.1501 24.9189 58.6084 24.8308 60.7592 22.492C60.9119 22.3274 60.9619 22.0924 60.8943 21.8808C60.8356 21.6957 54.7946 3.64631 35.2232 3.25259V0.625838C35.2232 0.27913 34.9441 0 34.5974 0C34.2507 0 33.9715 0.27913 33.9715 0.625838V3.25553C14.406 3.64631 8.36507 21.6987 8.30631 21.8838C8.23873 22.0953 8.28868 22.3304 8.44147 22.4949C10.5922 24.8337 14.0534 24.9248 16.5832 24.5869C17.3736 24.4811 18.1611 24.3342 18.9514 24.1903C20.8701 23.8377 22.6829 23.5027 24.4988 23.726C25.9444 23.9052 27.3811 24.4488 28.7739 24.9777C30.4457 25.6094 32.1704 26.2411 33.9745 26.3204V45.1397H26.2911C25.9444 45.1397 25.6652 45.4188 25.6652 45.7655C25.6652 46.1122 25.9444 46.3913 26.2911 46.3913H33.9745V62.7542H20.0562V56.9454H21.2756C21.4783 56.9454 21.6663 56.8484 21.7839 56.6839C21.9014 56.5193 21.9308 56.3078 21.8661 56.1197L20.4117 51.8505C20.1767 51.1542 20.0562 50.4284 20.0562 49.6939V37.1889C20.0562 36.8422 19.7771 36.563 19.4304 36.563H3.72858C3.38187 36.563 3.10275 36.8422 3.10275 37.1889V49.6909C3.10275 50.4255 2.98228 51.1542 2.74722 51.8505L1.29281 56.1197C1.22817 56.3107 1.26049 56.5193 1.37508 56.6839C1.49261 56.8484 1.68065 56.9454 1.88339 56.9454H3.10275V62.7542H0M24.6515 22.4861C22.6448 22.2393 20.6497 22.6066 18.7252 22.9621C17.9583 23.1031 17.1885 23.2441 16.4187 23.3499C14.6705 23.582 11.5383 23.6849 9.62262 21.9131C10.5628 19.4127 16.9329 4.47195 34.6032 4.47195C52.2736 4.47195 58.6378 19.4127 59.5809 21.9131C57.6652 23.6878 54.5331 23.585 52.7849 23.3499C52.0151 23.2471 51.2482 23.1031 50.4784 22.9621C48.5539 22.6066 46.5617 22.2363 44.552 22.4861C42.9595 22.68 41.4463 23.253 39.986 23.8053C38.1614 24.4988 36.4514 25.1863 34.5827 25.0923C32.7816 25.1716 31.0421 24.4958 29.2175 23.8053C27.7572 23.253 26.247 22.68 24.6515 22.4861ZM49.973 52.2472C50.2551 51.4245 50.3961 50.5606 50.3961 49.688V37.8118H64.8491V49.6909C64.8491 50.5606 64.9931 51.4215 65.2722 52.2501L66.4446 55.6937H48.8007L49.973 52.2501V52.2472ZM50.3961 56.9395H64.8491V62.7483H50.3961V56.9395ZM3.93132 52.2472C4.21339 51.4215 4.35442 50.5606 4.35442 49.688V37.8118H18.8075V49.6909C18.8075 50.5636 18.9514 51.4245 19.2306 52.2501L20.4029 55.6937H2.75898L3.93132 52.2501V52.2472ZM4.35442 56.9395H18.8075V62.7483H4.35442V56.9395Z" fill="#917145"/>
</g>
<defs>
<clipPath id="clip0_615_4758">
<rect width="69.2036" height="64" fill="white"/>
</clipPath>
</defs>
</svg>
