<svg width="72" height="64" viewBox="0 0 72 64" fill="none" xmlns="http://www.w3.org/2000/svg">
<g clip-path="url(#clip0_615_4754)">
<path d="M71.0607 18.6358C70.8798 17.5385 70.2244 16.8505 69.2636 16.7497C64.3556 16.2396 60.4559 15.0623 60.1949 14.0095C59.2311 10.1305 56.4583 7.37846 52.7839 6.64893C48.7537 5.83933 44.5218 7.66909 41.755 11.4087C40.0942 13.6506 38.0005 19.223 37.4252 20.9993C37.3956 21.0853 37.3837 21.1743 37.36 21.2633C33.6738 24.2941 25.9336 24.1517 19.0832 24.0124C15.1597 23.9382 11.4646 23.8611 8.64732 24.3445C6.33714 24.6559 2.44335 22.3843 1.22153 19.3001C1.09401 18.9768 0.729249 18.8196 0.403037 18.9472C0.0797892 19.0747 -0.077386 19.4424 0.0501335 19.7657C1.20078 22.669 4.62304 25.2282 7.5293 25.5871C4.47773 30.4447 4.81877 36.9778 5.21319 44.46C5.42968 48.588 5.67286 53.2707 5.35554 58.1224C5.22209 60.136 7.07261 62.3038 8.86678 63.1579C11.6811 64.4924 14.6645 63.9705 16.0435 62.7931C16.7137 62.2208 16.9806 61.4972 16.776 60.8062C16.4379 59.6645 14.9047 58.846 12.3246 58.4248C12.4255 56.1354 13.6651 52.0074 14.8661 48.0038C15.8032 44.8751 16.6989 41.8948 17.1081 39.6587C19.955 41.9066 29.3974 47.9831 42.7455 42.6361C43.6144 46.3639 45.2929 52.7606 47.6891 58.3774C49.246 62.5648 52.2738 63.9942 54.8361 63.9942C55.2809 63.9942 55.7109 63.9497 56.1172 63.8726C57.944 63.5167 59.1955 62.4343 59.1629 61.2451C59.1391 60.4385 58.5045 59.0328 54.6315 58.41C52.4933 43.1877 56.7608 27.9299 58.2228 27.2092C62.25 26.5894 65.0999 25.9963 67.7393 24.7893C70.0465 23.7336 71.3988 20.6672 71.0667 18.6298L71.0607 18.6358ZM53.4452 59.0624C53.4868 59.3412 53.7062 59.5577 53.985 59.5963C57.0425 60.0085 57.8817 60.8537 57.8936 61.2896C57.9055 61.7463 57.1374 62.3928 55.8711 62.6419C53.5906 63.0897 50.4174 62.114 48.8545 57.9177C46.3219 51.9807 44.6019 45.1687 43.8042 41.6367C43.7834 41.5389 43.6944 41.18 43.5818 40.7293C43.3682 39.8663 43.0717 38.6652 43.0272 38.4191C42.9649 38.0751 42.6446 37.8527 42.2947 37.909C41.9507 37.9713 41.7253 38.3005 41.7846 38.6415C41.8321 38.8966 42.1375 40.1391 42.357 41.0318C42.3896 41.1682 42.4163 41.269 42.443 41.3847C27.0991 47.6213 17.1941 38.1077 17.0933 38.0069C16.9242 37.8379 16.6692 37.7845 16.4408 37.8586C16.2125 37.9387 16.0494 38.1433 16.0227 38.3806C15.7736 40.5662 14.6971 44.1664 13.6502 47.6509C12.2624 52.2802 10.9516 56.6514 11.0554 59.0061C11.0672 59.3116 11.2985 59.5607 11.601 59.6022C14.2878 59.964 15.4118 60.6757 15.5601 61.171C15.6372 61.4349 15.3792 61.7048 15.219 61.8412C14.3234 62.6033 11.862 63.1935 9.40355 62.0251C8.0038 61.3608 6.51508 59.6318 6.60998 58.2143C6.93322 53.2855 6.68708 48.5673 6.46763 44.4007C6.06728 36.7495 5.7381 30.1333 9.09513 25.5633C11.7701 25.1393 15.305 25.2016 19.0565 25.2757C25.8506 25.4121 32.8405 25.5248 37.0753 22.9714C37.0012 24.8813 37.6892 26.7229 39.0326 27.9773C40.462 29.3148 42.3451 29.6944 44.0681 29.0034C44.593 28.7929 45.2187 28.4311 45.8623 27.832C48.7478 30.851 53.0923 33.2709 54.4535 33.9885C52.9737 40.584 52.1256 50.2369 53.4452 59.0713V59.0624ZM47.5408 25.6553C50.3699 28.5556 54.0739 30.4832 55.2127 31.0378C55.0555 31.5627 54.9013 32.1143 54.7501 32.7044C53.1783 31.8504 49.2638 29.5758 46.7193 26.889C46.9981 26.5361 47.2739 26.1209 47.5408 25.6553ZM67.2114 23.6476C64.6907 24.7982 62.0395 25.3528 58.0241 25.9696C57.2619 26.0853 56.4078 27.5295 55.6071 29.8278C54.3379 29.1932 50.7347 27.2419 48.1547 24.4661C49.1837 22.1885 50.023 18.8434 50.2958 13.9235C50.3136 13.5765 50.0497 13.28 49.6997 13.2592C49.3617 13.194 49.0562 13.5024 49.0354 13.8553C48.4334 24.733 45.0319 27.2478 43.5966 27.8261C42.3214 28.3451 40.9691 28.0574 39.8926 27.0521C38.4424 25.6998 37.9442 23.4756 38.6233 21.3878C39.3291 19.2081 41.3309 14.0955 42.7633 12.1619C45.2395 8.81677 48.9821 7.17384 52.5348 7.88854C55.7169 8.52021 58.1249 10.9253 58.9671 14.3149C59.5721 16.7556 66.2773 17.7105 69.1301 18.0071C69.2695 18.0219 69.6877 18.0664 69.8152 18.8434C70.0643 20.3677 68.9582 22.8528 67.2085 23.6506L67.2114 23.6476Z" fill="#917145"/>
<path d="M20.4318 17.4613C25.2449 17.4613 29.1625 13.5438 29.1625 8.73064C29.1625 3.91752 25.2479 0 20.4318 0C15.6157 0 11.7012 3.91752 11.7012 8.73064C11.7012 13.5438 15.6187 17.4613 20.4318 17.4613ZM20.4318 1.26037C24.551 1.26037 27.9021 4.61146 27.9021 8.73064C27.9021 12.8498 24.551 16.2009 20.4318 16.2009C16.3126 16.2009 12.9615 12.8498 12.9615 8.73064C12.9615 4.61146 16.3126 1.26333 20.4318 1.26333V1.26037Z" fill="#917145"/>
<path d="M19.1067 11.3581C19.2313 11.4826 19.3914 11.5449 19.5516 11.5449C19.7117 11.5449 19.8748 11.4826 19.9964 11.3581L24.3647 6.98981C24.6108 6.74366 24.6108 6.34628 24.3647 6.10013C24.1186 5.85399 23.7212 5.85399 23.475 6.10013L19.5516 10.0206L17.3926 7.86168C17.1465 7.61554 16.7491 7.61554 16.503 7.86168C16.2568 8.10783 16.2568 8.50521 16.503 8.75136L19.1067 11.3581Z" fill="#917145"/>
</g>
<defs>
<clipPath id="clip0_615_4754">
<rect width="71.1085" height="64" fill="white"/>
</clipPath>
</defs>
</svg>
