<svg width="84" height="64" viewBox="0 0 84 64" fill="none" xmlns="http://www.w3.org/2000/svg">
<g clip-path="url(#clip0_615_4733)">
<path d="M80.1422 0H3.0245C1.35617 0 0 1.35617 0 3.0245V34.7817C0 36.45 1.35617 37.8062 3.0245 37.8062H17.873C18.2822 37.8062 18.6117 37.4767 18.6117 37.0674V34.3932C18.6117 33.5365 19.3054 32.8428 20.1587 32.8428H63.008C63.8613 32.8428 64.555 33.5365 64.555 34.3932V37.0674C64.555 37.4767 64.8845 37.8062 65.2937 37.8062H80.1422C81.8105 37.8062 83.1667 36.45 83.1667 34.7817V3.0245C83.1667 1.35617 81.8105 0 80.1422 0ZM77.2252 1.47756V1.78626C77.2252 3.90202 75.5049 5.6189 73.3926 5.6189H9.77412C7.65836 5.6189 5.94147 3.89855 5.94147 1.78626V1.47756H77.2252ZM81.6891 34.7852C81.6891 35.6419 80.9954 36.3356 80.1387 36.3356H66.0256V34.4002C66.0256 32.7318 64.6694 31.3757 63.0046 31.3757H20.1587C18.4938 31.3757 17.1377 32.7318 17.1377 34.4002V36.3356H3.0245C2.16779 36.3356 1.47409 35.6419 1.47409 34.7852V3.0245C1.47409 2.16779 2.16779 1.47409 3.0245 1.47409H4.46391V1.78279C4.46391 4.71017 6.84674 7.093 9.77412 7.093H73.3926C76.32 7.093 78.7028 4.71017 78.7028 1.78279V1.47409H80.1422C80.9989 1.47409 81.6926 2.16779 81.6926 3.0245V34.7817L81.6891 34.7852Z" fill="#917145" stroke="#EDEDED" stroke-width="0.3"/>
<path d="M61.7361 37.8096C62.1453 37.8096 62.4748 37.4801 62.4748 37.0708C62.4748 36.6615 62.1453 36.332 61.7361 36.332H21.436C21.0268 36.332 20.6973 36.6615 20.6973 37.0708C20.6973 37.4801 21.0268 37.8096 21.436 37.8096H61.7361Z" fill="#917145" stroke="#EDEDED" stroke-width="0.3"/>
<path d="M9.77394 13.5132H73.3924C73.8017 13.5132 74.1312 13.1837 74.1312 12.7744C74.1312 12.3651 73.8017 12.0356 73.3924 12.0356H9.77394C9.36466 12.0356 9.03516 12.3651 9.03516 12.7744C9.03516 13.1837 9.36466 13.5132 9.77394 13.5132Z" fill="#917145" stroke="#EDEDED" stroke-width="0.3"/>
<path d="M74.1312 18.8545C74.1312 18.4452 73.8017 18.1157 73.3924 18.1157H9.77394C9.36466 18.1157 9.03516 18.4452 9.03516 18.8545C9.03516 19.2638 9.36466 19.5933 9.77394 19.5933H73.3924C73.8017 19.5933 74.1312 19.2638 74.1312 18.8545Z" fill="#917145" stroke="#EDEDED" stroke-width="0.3"/>
<path d="M72.9902 26.0063C71.2144 26.0063 69.7715 27.4492 69.7715 29.2251C69.7715 31.0009 71.2144 32.4438 72.9902 32.4438C74.7661 32.4438 76.2089 30.9975 76.2089 29.2251C76.2089 27.4527 74.7626 26.0063 72.9902 26.0063ZM72.9902 30.9697C72.0295 30.9697 71.249 30.1858 71.249 29.2251C71.249 28.2643 72.0295 27.4839 72.9902 27.4839C73.951 27.4839 74.7348 28.2643 74.7348 29.2251C74.7348 30.1858 73.951 30.9697 72.9902 30.9697Z" fill="#917145"/>
<path d="M10.1797 26.0063C8.40382 26.0063 6.96094 27.4492 6.96094 29.2251C6.96094 31.0009 8.40728 32.4438 10.1797 32.4438C11.952 32.4438 13.3984 30.9975 13.3984 29.2251C13.3984 27.4527 11.9555 26.0063 10.1797 26.0063ZM10.1797 30.9697C9.2189 30.9697 8.43503 30.1858 8.43503 29.2251C8.43503 28.2643 9.2189 27.4839 10.1797 27.4839C11.1404 27.4839 11.9208 28.2643 11.9208 29.2251C11.9208 30.1858 11.1404 30.9697 10.1797 30.9697Z" fill="#917145"/>
<path d="M26.1755 41.979C25.7836 41.861 25.3743 42.0934 25.2668 42.4888C25.2321 42.6137 21.9856 54.0215 18.3992 60.2439L18.1703 57.9859C18.1287 57.5801 17.7818 57.2749 17.3621 57.3269C16.9563 57.3685 16.6615 57.7292 16.7031 58.1351L17.1436 62.4463C17.1644 62.6649 17.2893 62.866 17.4731 62.9874C17.5945 63.0672 17.7367 63.1088 17.8789 63.1088C17.8789 63.1088 17.8789 63.1088 17.8824 63.1088C17.8963 63.1088 17.9067 63.1192 17.9171 63.1192C18.042 63.1192 18.1668 63.0776 18.2778 63.0152L22.3324 61.7318C22.7209 61.6105 22.936 61.1942 22.8146 60.8092C22.6932 60.4208 22.2769 60.2023 21.8919 60.3271L19.6479 61.0382C23.3383 54.677 26.5432 43.4114 26.6888 42.8877C26.7998 42.4958 26.5709 42.09 26.179 41.979H26.1755Z" fill="#917145"/>
<path d="M66.0016 57.3269C65.5576 57.2749 65.2316 57.5801 65.1935 57.9859L64.9645 60.2439C61.3747 54.0215 58.1317 42.6137 58.097 42.4888C57.986 42.0934 57.5733 41.861 57.1883 41.979C56.7963 42.09 56.5674 42.4958 56.6784 42.8877C56.8241 43.4114 60.0289 54.6805 63.7194 61.0382L61.4753 60.3271C61.0868 60.1953 60.6741 60.4173 60.5527 60.8092C60.4278 61.1977 60.6428 61.6105 61.0348 61.7318L65.0894 63.0152C65.2004 63.0776 65.3218 63.1192 65.4501 63.1192C65.464 63.1192 65.4744 63.1088 65.4848 63.1088C65.4848 63.1088 65.4848 63.1088 65.4883 63.1088C65.6305 63.1088 65.7727 63.0672 65.8941 62.9874C66.0779 62.866 66.1993 62.6649 66.2236 62.4463L66.6641 58.1351C66.7057 57.7292 66.4109 57.3685 66.0051 57.3269H66.0016Z" fill="#917145"/>
<path d="M36.1063 60.3892L33.942 61.6518C35.8878 54.59 36.852 43.2724 36.8971 42.7521C36.9318 42.3463 36.63 41.9891 36.2242 41.9544C35.7733 41.944 35.4612 42.2249 35.4265 42.6273C35.4161 42.7521 34.4657 53.8963 32.624 60.8818L31.9684 58.9186C31.8366 58.5301 31.4204 58.3324 31.0354 58.4504C30.6469 58.5822 30.4388 58.9984 30.5672 59.3834L31.9407 63.497C32.0101 63.7086 32.1731 63.875 32.3812 63.9548C32.4644 63.9895 32.5511 64.0034 32.6413 64.0034C32.6482 64.0034 32.6517 63.9999 32.6587 63.9999C32.6656 63.9999 32.676 64.0034 32.6829 64.0034C32.7835 64.0034 32.8702 63.9548 32.9604 63.9167C32.9778 63.9097 32.9951 63.9132 33.0124 63.9028H33.0194C33.061 63.875 33.0991 63.8612 33.1338 63.8299L36.8451 61.6656C37.1954 61.461 37.3133 61.0101 37.1087 60.6563C36.904 60.3025 36.4497 60.1881 36.0994 60.3927L36.1063 60.3892Z" fill="#917145"/>
<path d="M52.1318 58.4506C51.7434 58.3292 51.3306 58.5269 51.1988 58.9189L50.6092 60.6878C49.0553 53.737 47.7512 42.7281 47.7373 42.6032C47.6887 42.2009 47.3246 41.9304 46.9187 41.9546C46.5164 42.0032 46.225 42.3674 46.2701 42.7732C46.3326 43.3004 47.6922 54.7775 49.3293 61.711L47.0609 60.3895C46.7072 60.1849 46.2528 60.2993 46.0516 60.6531C45.847 61.0069 45.9649 61.4578 46.3152 61.6624L50.0161 63.8233C50.0473 63.851 50.082 63.8614 50.1201 63.8822L50.1513 63.8996C50.193 63.9239 50.2415 63.9204 50.2866 63.9377C50.3525 63.9585 50.4115 64.0036 50.4808 64.0036C50.4913 64.0036 50.4982 64.0002 50.5086 64.0002C50.5121 64.0002 50.519 64.0036 50.5225 64.0036C50.571 64.0036 50.6161 63.9863 50.6612 63.9759C50.6681 63.9759 50.6716 63.9759 50.6786 63.9759C50.7132 63.9689 50.7479 63.9689 50.7791 63.9585C50.9872 63.8822 51.1503 63.7123 51.2196 63.5007L52.5931 59.3871C52.7215 59.0021 52.5134 58.5859 52.1249 58.4541L52.1318 58.4506Z" fill="#917145"/>
</g>
<defs>
<clipPath id="clip0_615_4733">
<rect width="83.1667" height="64" fill="white"/>
</clipPath>
</defs>
</svg>
