<svg width="65" height="64" viewBox="0 0 65 64" fill="none" xmlns="http://www.w3.org/2000/svg">
<g clip-path="url(#clip0_615_4744)">
<path d="M64.0053 18.5281C64.0053 17.2708 63.5169 16.0883 62.628 15.2021L60.1428 12.7143C60.7034 12.6289 61.2426 12.3753 61.6777 11.9428L61.6884 11.9322C62.2035 11.4116 62.4892 10.7256 62.4892 9.99156C62.4892 9.25749 62.2009 8.5688 61.683 8.05095L55.9546 2.31988C54.9136 1.27884 53.1171 1.2655 52.0521 2.33323C51.633 2.75232 51.3767 3.28084 51.286 3.85475L48.8035 1.37227C46.9696 -0.461564 43.9853 -0.464234 42.1355 1.38562C41.2466 2.2745 40.7581 3.45435 40.7581 4.71161C40.7581 4.83974 40.7848 4.9652 40.7955 5.09065L40.1068 4.40197C38.2729 2.56813 35.2886 2.56546 33.4388 4.41531C32.5499 5.3042 32.0614 6.48405 32.0614 7.74131C32.0614 8.99856 32.5499 10.1784 33.4388 11.0673L39.4234 17.0519L17.0597 39.4183L11.0777 33.4363C9.29997 31.6559 6.21421 31.6452 4.40974 33.447C2.57591 35.2808 2.57591 38.2678 4.40974 40.099L5.14114 40.8304C3.78779 40.7156 2.38372 41.1347 1.37738 42.141C0.488488 43.0299 0 44.2124 0 45.4697C0 46.727 0.488488 47.9095 1.37738 48.7957L3.87855 51.2969C3.30731 51.3796 2.75742 51.6252 2.32766 52.0549C1.80714 52.5755 1.52152 53.2668 1.52152 54.0009C1.52152 54.735 1.80714 55.4237 2.32766 55.9442L8.05606 61.6752C8.58992 62.2064 9.29196 62.476 9.99666 62.476C10.7014 62.476 11.4141 62.2064 11.956 61.6646L11.9666 61.6539C12.3804 61.2375 12.6366 60.7089 12.7247 60.1404L15.2072 62.6229C16.1255 63.5411 17.3293 64.0002 18.5332 64.0002C19.7371 64.0002 20.9436 63.5411 21.8619 62.6229L21.8752 62.6095C22.8896 61.5952 23.322 60.2311 23.2125 58.9018L23.9039 59.5932C24.8222 60.5114 26.026 60.9705 27.2299 60.9705C28.4338 60.9705 29.6403 60.5114 30.5586 59.5932L30.5719 59.5798C32.4057 57.746 32.4057 54.759 30.5719 52.9278L24.5873 46.9458L46.9483 24.5848L52.9303 30.5668C53.8485 31.485 55.0524 31.9442 56.2563 31.9442C57.4601 31.9442 58.6667 31.485 59.5849 30.5668L59.5983 30.5534C60.4872 29.6672 60.9756 28.4847 60.9756 27.2275C60.9756 25.9702 60.4872 24.7877 59.5983 23.9015L58.9069 23.2101C59.035 23.2208 59.1578 23.2475 59.2886 23.2475C60.5459 23.2475 61.7257 22.759 62.6146 21.8701L62.2142 21.4697L62.6306 21.8568C63.5195 20.9705 64.008 19.788 64.008 18.5308L64.0053 18.5281ZM11.1578 58.5761C11.4621 58.8804 11.6303 59.2835 11.6303 59.7159C11.6303 60.1484 11.4621 60.5541 11.1578 60.8584L11.5582 61.2588L11.1418 60.8744C10.5118 61.5017 9.48682 61.5017 8.85953 60.8744L3.13113 55.1434C2.82683 54.8391 2.65866 54.4333 2.65866 54.0036C2.65866 53.5738 2.82683 53.1654 3.14715 52.8451C3.45145 52.5408 3.85719 52.3726 4.28695 52.3726C4.71672 52.3726 5.12246 52.5381 5.42676 52.8424L7.33801 54.7536L11.1578 58.5761ZM21.0717 61.8087L21.4721 62.2091L21.0557 61.8221C19.665 63.2074 17.4014 63.2128 16.008 61.8221L9.09443 54.9085L6.23023 52.0443C6.23023 52.0443 6.22756 52.0443 6.22489 52.0416L2.18085 47.9976C1.50551 47.3222 1.13447 46.428 1.13447 45.4724C1.13447 44.5167 1.50551 43.6225 2.19419 42.9338C2.86687 42.2612 3.76376 41.8874 4.71672 41.8874C5.66967 41.8874 6.56657 42.2585 7.23924 42.9338L14.1528 49.8474L21.0717 56.7663C22.4598 58.1571 22.4598 60.4206 21.0691 61.8114L21.0717 61.8087ZM29.7684 58.779L30.1688 59.1794L29.7524 58.7924C28.3617 60.1777 26.0981 60.1831 24.7047 58.7924L21.8752 55.9629C21.8752 55.9629 21.8752 55.9602 21.8725 55.9602L14.959 49.0466L5.21321 39.3009C3.82249 37.9101 3.82249 35.6439 5.22656 34.2398C5.9019 33.5671 6.79613 33.1934 7.75175 33.1934C8.70737 33.1934 9.6016 33.5645 10.2743 34.2398L20.02 43.9855L23.3834 47.3489L29.7684 53.7313C31.1592 55.122 31.1592 57.3883 29.7684 58.7817V58.779ZM23.7865 46.1424L17.8632 40.2218L40.2242 17.8608L46.1475 23.7813L23.7865 46.1424ZM52.8502 5.42165C52.5459 5.11735 52.3777 4.71161 52.3777 4.28185C52.3777 3.85208 52.5459 3.44367 52.8662 3.12335C53.1705 2.81905 53.5762 2.65088 54.006 2.65088C54.4358 2.65088 54.8415 2.81905 55.1485 3.12335L60.8769 8.85442C61.1812 9.15872 61.3494 9.56179 61.3494 9.99422C61.3494 10.4267 61.1812 10.8324 60.8769 11.1367L61.2773 11.5371L60.8609 11.1527C60.2336 11.78 59.2085 11.78 58.5786 11.1527L56.6673 9.24147L52.8475 5.41898L52.8502 5.42165ZM59.8412 27.2248C59.8412 28.1777 59.4701 29.0746 58.7815 29.7607L58.7761 29.7687C57.3854 31.154 55.1245 31.154 53.7337 29.7633L34.2396 10.2692C33.5642 9.59649 33.1932 8.6996 33.1932 7.74397C33.1932 6.78835 33.5642 5.89412 34.2529 5.20544C34.9496 4.51141 35.8625 4.16439 36.7781 4.16439C37.6937 4.16439 38.6066 4.51141 39.3006 5.20544L42.1301 8.03493C42.1301 8.03493 42.1301 8.0376 42.1328 8.04027L49.0464 14.9539L58.7921 24.6996C59.4675 25.3749 59.8385 26.2692 59.8385 27.2248H59.8412ZM61.8272 21.0533L61.8138 21.0666C60.4231 22.4574 58.1595 22.4574 56.7661 21.0666L49.8525 14.153L42.9336 7.23413C42.2609 6.56146 41.8926 5.66456 41.8926 4.71428C41.8926 3.76399 42.2636 2.86443 42.9523 2.17574C43.649 1.48171 44.5619 1.1347 45.4775 1.1347C46.3931 1.1347 47.306 1.48171 48 2.17574L53.9606 8.13637L57.7805 11.9589C57.7805 11.9589 57.7858 11.9642 57.7885 11.9669L61.8272 16.0056C62.5025 16.6809 62.8735 17.5751 62.8735 18.5308C62.8735 19.4864 62.5025 20.3806 61.8272 21.056V21.0533Z" fill="#917145"/>
</g>
<defs>
<clipPath id="clip0_615_4744">
<rect width="64.0053" height="64" fill="white"/>
</clipPath>
</defs>
</svg>
