<svg width="104" height="98" viewBox="0 0 104 98" fill="none" xmlns="http://www.w3.org/2000/svg">
<path d="M16.9688 81.5342H21.4489V87.2733C21.4489 87.6782 21.1212 88.0059 20.7163 88.0059H17.7013C17.2964 88.0059 16.9688 87.6782 16.9688 87.2733V81.5342V81.5342Z" stroke="#917145" stroke-width="1.3" stroke-linecap="round" stroke-linejoin="round"/>
<path d="M86.7656 81.5342H91.2457V87.2733C91.2457 87.6782 90.9181 88.0059 90.5132 88.0059H87.4982C87.0933 88.0059 86.7656 87.6782 86.7656 87.2733V81.5342V81.5342Z" stroke="#917145" stroke-width="1.3" stroke-linecap="round" stroke-linejoin="round"/>
<path d="M13.9334 65.4473H95.2382C97.6752 65.4473 99.6557 67.4278 99.6557 69.8648V73.9584C99.6557 78.1403 96.2616 81.5308 92.0833 81.5308H17.0919C12.91 81.5308 9.51953 78.1366 9.51953 73.9584V69.8648C9.51953 67.4278 11.5001 65.4473 13.9371 65.4473H13.9334Z" stroke="#917145" stroke-width="1.3" stroke-linecap="round" stroke-linejoin="round"/>
<path d="M9.99276 47.9712H12.0948C17.451 47.9712 21.8023 52.3188 21.8023 57.6787V61.4889C21.8023 63.6755 20.0279 65.4462 17.8449 65.4462H9.99644C7.80976 65.4462 6.03906 63.6719 6.03906 61.4889V51.9322C6.03906 49.7456 7.81344 47.9749 9.99644 47.9749L9.99276 47.9712Z" stroke="#917145" stroke-width="1.3" stroke-linecap="round" stroke-linejoin="round"/>
<path d="M97.073 47.9715H99.175C101.362 47.9715 103.132 49.7458 103.132 51.9288V61.4854C103.132 63.6721 101.358 65.4428 99.175 65.4428H91.3265C89.1398 65.4428 87.3691 63.6684 87.3691 61.4854V57.6753C87.3691 52.319 91.7167 47.9678 97.0767 47.9678L97.073 47.9715Z" stroke="#917145" stroke-width="1.3" stroke-linecap="round" stroke-linejoin="round"/>
<path d="M95.2542 48.1308V45.1122C95.2542 41.788 94.4038 38.6515 92.9092 35.909C89.007 28.7489 80.8861 24.9645 72.8352 26.2566L62.9031 27.8543C57.3959 28.7378 51.7782 28.7378 46.271 27.8543L36.3389 26.2566C28.288 24.9645 20.1671 28.7489 16.2649 35.909C14.7703 38.6515 13.9199 41.788 13.9199 45.1122V48.2633" stroke="#917145" stroke-width="1.3" stroke-linecap="round" stroke-linejoin="round"/>
<path d="M48.9017 65.448H27.6754C24.8776 65.448 22.5879 63.1582 22.5879 60.3604C22.5879 58.3504 24.2297 56.7086 26.2397 56.7086L30.9812 56.1085C35.8331 55.4938 40.744 55.4938 45.5959 56.1085L50.3374 56.7086C52.3474 56.7086 53.9892 58.3504 53.9892 60.3604C53.9892 63.1582 51.6995 65.448 48.9017 65.448Z" stroke="#917145" stroke-width="1.3" stroke-linecap="round" stroke-linejoin="round"/>
<path d="M81.2826 65.3371H60.0563C57.2585 65.3371 54.9688 63.0474 54.9688 60.2496C54.9688 58.2396 56.6106 56.5978 58.6206 56.5978L63.3621 55.9977C68.214 55.3829 73.1248 55.3829 77.9768 55.9977L82.7183 56.5978C84.7282 56.5978 86.3701 58.2396 86.3701 60.2496C86.3701 63.0474 84.0803 65.3371 81.2826 65.3371V65.3371Z" stroke="#917145" stroke-width="1.3" stroke-linecap="round" stroke-linejoin="round"/>
</svg>
