<svg width="47" height="64" viewBox="0 0 47 64" fill="none" xmlns="http://www.w3.org/2000/svg">
<g clip-path="url(#clip0_615_4764)">
<path d="M13.5679 9.21636C11.4529 8.86386 9.45085 10.2981 9.09834 12.4078C8.92882 13.4303 9.16561 14.4582 9.76837 15.3031C10.3711 16.1481 11.2672 16.7078 12.2897 16.8746C12.505 16.9096 12.723 16.9284 12.9382 16.9284C13.7401 16.9284 14.5205 16.6782 15.1878 16.2046C16.0301 15.6018 16.5898 14.7085 16.762 13.6832C17.1145 11.5709 15.6829 9.56618 13.5679 9.21367V9.21636ZM15.6399 13.4976C15.5188 14.2214 15.1232 14.8565 14.5285 15.2816C13.9312 15.7068 13.2073 15.879 12.4781 15.7552C11.7542 15.6341 11.1219 15.2386 10.694 14.6412C10.2689 14.0438 10.0993 13.3173 10.2204 12.5934C10.4438 11.2507 11.6116 10.2954 12.9302 10.2954C13.0782 10.2954 13.2315 10.3062 13.3822 10.3331C14.8784 10.5833 15.8901 12.0014 15.6426 13.4976H15.6399Z" fill="#917145"/>
<path d="M46.6593 14.7084C46.4925 12.2085 44.7838 9.59569 41.3529 9.14093C41.5197 5.68314 39.2567 3.53582 36.8268 2.92498C34.3943 2.30877 31.3859 3.1268 29.8924 6.25092C27.6025 5.38445 25.5736 5.88765 24.1043 6.99629C23.9644 5.09922 22.915 3.3044 21.2116 2.25495C19.18 1.00369 16.7824 1.07635 14.6997 2.42986C12.5604 -0.31484 9.43093 -0.468221 7.17866 0.656569C4.92639 1.78136 3.16925 4.37268 4.07876 7.73091C0.806648 8.91759 -0.304687 11.848 0.0693461 14.337C0.443379 16.8261 2.36736 19.299 5.84129 19.4712C5.957 22.9479 8.40033 24.9122 10.884 25.3239C11.2204 25.3804 11.5648 25.41 11.9119 25.41C13.9651 25.41 16.1151 24.3848 17.2749 22.0087C19.328 25.6414 22.9284 32.2099 24.7017 42.2792C24.2685 41.6872 23.8379 41.0521 23.3939 40.3982C21.957 38.2778 20.4716 36.0848 18.4589 34.6667C15.219 32.3848 12.1783 31.7713 8.3196 31.521C8.03167 31.4618 7.80295 31.6798 7.73299 31.9435C7.66302 32.2072 7.79219 32.4817 8.03436 32.6001C11.0858 34.0747 14.7858 38.2644 15.846 39.5156C18.0552 42.1177 21.7982 44.2247 25.0973 44.779C25.4013 46.9936 25.6058 49.3723 25.692 51.8991C25.6812 52.4507 25.692 52.9754 25.7162 53.4786C25.7216 53.9415 25.7404 54.3908 25.7377 54.8618C25.7269 54.9344 25.7216 55.0017 25.7404 55.0716C25.7242 57.6818 25.5789 60.4426 25.2722 63.3703C25.2399 63.6825 25.4659 63.9623 25.7781 63.9946C25.7969 63.9946 25.8184 63.9973 25.8373 63.9973C26.1225 63.9973 26.3701 63.782 26.3997 63.4887C26.7037 60.596 26.8517 57.8567 26.8733 55.2681C30.5221 53.5647 34.214 49.8728 35.9577 46.1218C36.7919 44.3216 39.7572 38.2348 42.8383 35.5008C43.0401 35.3205 43.0885 35.0219 42.9513 34.7851C42.8114 34.551 42.5261 34.4514 42.2705 34.5402C37.9139 36.1036 34.6095 37.815 31.6011 41.5015C29.7364 43.7888 28.7138 46.8026 27.7263 49.7168C27.4276 50.5967 27.137 51.4524 26.8302 52.2597C26.8248 52.1144 26.8302 51.961 26.8221 51.8184C26.9432 46.1675 28.8349 37.9469 31.1598 27.9314L31.62 25.9428C32.8955 27.4981 34.5638 28.1466 36.1729 28.1466C36.9775 28.1466 37.766 27.9852 38.479 27.7C40.8067 26.7662 42.7629 24.3364 42.1333 20.9324C45.4726 20.0229 46.8154 17.2055 46.6486 14.7057L46.6593 14.7084ZM16.7152 38.7837C15.6146 37.4867 13.1632 34.7447 10.6338 32.8826C13.2547 33.2297 15.4504 33.9374 17.8077 35.5977C19.6509 36.8947 21.0744 39.0017 22.4548 41.036C23.0226 41.8755 23.5715 42.6882 24.1366 43.4228C21.3973 42.672 18.51 40.8961 16.7152 38.7837ZM11.0697 24.2072C8.94388 23.8547 6.85307 22.0868 6.97685 18.9358C6.98223 18.7797 6.92303 18.6263 6.8127 18.516C6.70238 18.4056 6.58936 18.3734 6.39562 18.3464C3.23114 18.4837 1.51166 16.3014 1.19144 14.1702C0.87123 12.0363 1.90722 9.5042 4.93985 8.64581C5.09054 8.60275 5.21701 8.5005 5.28966 8.36057C5.36232 8.22334 5.37308 8.05919 5.32195 7.91119C4.27789 4.93777 5.75788 2.63437 7.68455 1.67103C9.61391 0.705005 12.3425 0.909512 14.0942 3.53043C14.183 3.6596 14.3176 3.7484 14.4737 3.7753C14.627 3.79952 14.7858 3.76185 14.9123 3.66767C16.7098 2.29532 18.8436 2.12848 20.6196 3.22098C22.331 4.27312 23.2486 6.24554 22.9365 8.15337C22.8154 8.31214 22.6862 8.46552 22.5813 8.63235C21.2466 10.7528 21.0932 13.8715 23.6038 16.2556C22.732 17.3427 22.3176 18.4864 22.2207 19.5923C20.8672 20.6095 19.1666 20.8274 17.3933 20.1736C17.3852 20.1709 17.3771 20.1762 17.3717 20.1736C17.2829 20.144 17.1941 20.1709 17.1 20.187C17.0488 20.1978 16.9923 20.1709 16.9439 20.1951C16.9385 20.1951 16.9385 20.2032 16.9331 20.2058C16.9277 20.2058 16.9224 20.2058 16.9197 20.2058C16.8174 20.2624 16.7663 20.3646 16.7178 20.4615C16.7017 20.4911 16.664 20.5045 16.6533 20.5395C15.7491 23.5614 13.1982 24.5624 11.0724 24.1991L11.0697 24.2072ZM28.8107 50.0881C29.766 47.2681 30.7562 44.3565 32.4918 42.2254C34.806 39.3892 37.2412 37.8177 40.36 36.5045C37.9166 39.5156 35.8339 43.7188 34.9378 45.6482C33.474 48.8019 30.5463 51.926 27.4975 53.6939C27.9657 52.5772 28.3801 51.3582 28.8107 50.0881ZM26.3297 45.4894C26.2786 45.0804 26.2355 44.6633 26.179 44.265C26.179 44.2328 26.1709 44.2032 26.1629 44.1709C24.5349 32.8234 20.5577 25.5177 18.3189 21.5513C19.729 21.7881 21.0825 21.5701 22.2611 20.9055C22.4279 22.0518 22.9096 23.112 23.6092 23.9516C25.1026 25.741 27.7343 26.7958 30.5436 25.6091L30.0646 27.6811C28.477 34.5214 27.102 40.5113 26.3297 45.4894ZM41.3637 19.9556C41.2103 19.9852 41.0757 20.0794 40.9923 20.2112C40.9089 20.3431 40.8847 20.5045 40.925 20.6552C41.7189 23.6879 40.064 25.8513 38.0727 26.6505C36.0788 27.4497 33.3906 27.0245 31.8702 24.2852C31.8702 24.2798 31.8595 24.2798 31.8568 24.2772C31.803 24.1884 31.7088 24.1399 31.6146 24.0888C31.5742 24.0673 31.5554 24.0215 31.5123 24.0081C31.5096 24.0081 31.5043 24.0081 31.5016 24.0081C31.4585 24 31.4182 23.9919 31.3751 23.9919C31.2782 23.9919 31.184 24.0242 31.1006 24.0726C31.0926 24.078 31.0791 24.0753 31.071 24.0807C28.4313 25.776 25.8615 24.8692 24.4864 23.2223C23.1114 21.5755 22.6809 18.8873 24.8201 16.592C24.9277 16.479 24.9816 16.3229 24.9708 16.1668C24.96 16.0108 24.8847 15.8654 24.7636 15.7659C22.3391 13.7746 22.4037 11.0515 23.5473 9.2378C24.6883 7.42145 27.1154 6.18634 29.957 7.50756C30.0969 7.57214 30.2611 7.57752 30.4091 7.51833C30.5544 7.45913 30.6701 7.34342 30.7266 7.19811C31.8675 4.27581 34.4777 3.50083 36.5577 4.02287C38.6378 4.54759 40.5672 6.46888 40.1877 9.58223C40.1689 9.73831 40.2147 9.89438 40.3169 10.0128C40.4165 10.1339 40.5645 10.2065 40.7205 10.2146C43.85 10.3976 45.3973 12.6418 45.5426 14.781C45.6852 16.9203 44.4528 19.3501 41.3744 19.9502L41.3637 19.9556Z" fill="#917145"/>
<path d="M30.6465 13.0398C29.0104 14.4068 28.7898 16.8501 30.1567 18.4889C30.921 19.4038 32.0215 19.8774 33.1302 19.8774C34.0047 19.8774 34.8819 19.5841 35.6058 18.9813C37.2419 17.6143 37.4625 15.171 36.0982 13.5323C34.7313 11.8935 32.2879 11.6729 30.6492 13.0398H30.6465ZM34.8766 18.1094C33.7195 19.0701 31.9919 18.9167 31.0259 17.7623C30.0599 16.6052 30.2159 14.8777 31.373 13.9117C31.8843 13.4865 32.5032 13.2766 33.1221 13.2766C33.9052 13.2766 34.6828 13.6103 35.2237 14.2561C36.1897 15.4132 36.0336 17.1407 34.8766 18.1094Z" fill="#917145"/>
</g>
<defs>
<clipPath id="clip0_615_4764">
<rect width="46.6761" height="64" fill="white"/>
</clipPath>
</defs>
</svg>
