<svg width="73" height="52" viewBox="0 0 73 52" fill="none" xmlns="http://www.w3.org/2000/svg">
<g clip-path="url(#clip0_615_4746)">
<path d="M1.32377 26.0001C1.32377 16.6032 4.97813 7.76873 11.6187 1.12811C11.8767 0.870196 11.8767 0.453798 11.6187 0.19588C11.3608 -0.0620381 10.9413 -0.0620381 10.6834 0.19588C3.79419 7.08509 0 16.2489 0 26.0001C0 35.7513 3.79419 44.9182 10.6834 51.8074C10.8139 51.938 10.9817 52.0032 11.1495 52.0032C11.3173 52.0032 11.4882 51.938 11.6156 51.8074C11.8736 51.5495 11.8736 51.1331 11.6156 50.8752C4.97813 44.2315 1.32377 35.397 1.32377 26.0001Z" fill="#917145"/>
<path d="M18.4208 6.99471C18.1628 6.73679 17.7433 6.73679 17.4854 6.99471C12.3892 12.094 9.58008 18.8403 9.58008 25.9998C9.58008 33.1594 12.3861 39.9088 17.4854 45.005C17.6159 45.1355 17.7837 45.2008 17.9515 45.2008C18.1193 45.2008 18.2902 45.1355 18.4177 45.005C18.6756 44.7471 18.6756 44.3307 18.4177 44.0728C13.57 39.2251 10.9007 32.8083 10.9007 26.003C10.9007 19.1976 13.57 12.7808 18.4177 7.93316C18.6756 7.67524 18.6756 7.25884 18.4177 7.00092L18.4208 6.99471Z" fill="#917145"/>
<path d="M25.1742 13.7506C24.9163 13.4926 24.4968 13.4926 24.2389 13.7506C20.9636 17.0258 19.1582 21.3762 19.1582 26.0001C19.1582 30.624 20.9636 34.9744 24.2389 38.2528C24.3694 38.3833 24.5372 38.4485 24.705 38.4485C24.8728 38.4485 25.0437 38.3833 25.1711 38.2528C25.429 37.9949 25.429 37.5785 25.1711 37.3205C22.1445 34.2939 20.4789 30.2729 20.4789 26.0032C20.4789 21.7336 22.1445 17.7126 25.1711 14.6859C25.429 14.428 25.429 14.0116 25.1711 13.7537L25.1742 13.7506Z" fill="#917145"/>
<path d="M62.2487 0.192462C61.9908 -0.0654561 61.5744 -0.0654561 61.3165 0.192462C61.0586 0.45038 61.0586 0.866778 61.3165 1.1247C67.9571 7.76841 71.6115 16.5998 71.6115 25.9967C71.6115 35.3936 67.954 44.2281 61.3165 50.8687C61.0586 51.1266 61.0586 51.543 61.3165 51.8009C61.447 51.9314 61.6148 51.9967 61.7826 51.9967C61.9504 51.9967 62.1213 51.9314 62.2487 51.8009C69.141 44.9117 72.9352 35.7479 72.9352 25.9936C72.9352 16.2393 69.141 7.08478 62.2487 0.192462Z" fill="#917145"/>
<path d="M55.446 6.99471C55.1881 6.73679 54.7717 6.73679 54.5138 6.99471C54.2558 7.25263 54.2558 7.66902 54.5138 7.92694C59.3614 12.7777 62.0307 19.1945 62.0307 25.9967C62.0307 32.7989 59.3614 39.2189 54.5138 44.0665C54.2558 44.3245 54.2558 44.7409 54.5138 44.9988C54.6443 45.1293 54.8121 45.1945 54.9799 45.1945C55.1477 45.1945 55.3186 45.1293 55.446 44.9988C60.5453 39.9026 63.3513 33.1532 63.3513 25.9936C63.3513 18.8341 60.5453 12.0878 55.446 6.98849V6.99471Z" fill="#917145"/>
<path d="M47.7579 13.7503C47.5 14.0082 47.5 14.4246 47.7579 14.6825C50.7845 17.7091 52.4501 21.7271 52.4501 25.9998C52.4501 30.2725 50.7845 34.2905 47.7579 37.3171C47.5 37.575 47.5 37.9914 47.7579 38.2494C47.8884 38.3799 48.0562 38.4451 48.224 38.4451C48.3918 38.4451 48.5627 38.3799 48.6901 38.2494C51.9654 34.971 53.7708 30.6206 53.7708 25.9967C53.7708 21.3728 51.9654 17.0224 48.6901 13.7471C48.4322 13.4892 48.0158 13.4892 47.7579 13.7471V13.7503Z" fill="#917145"/>
<path d="M36.444 18.2378C32.1651 18.2378 28.6816 21.7212 28.6816 26.0002C28.6816 30.2791 31.8264 33.3648 35.8039 33.6973V51.3414C35.8039 51.7081 36.0991 52.0033 36.4658 52.0033C36.8325 52.0033 37.1277 51.7081 37.1277 51.3414V33.6942C41.0835 33.3431 44.2064 30.0461 44.2064 26.0033C44.2064 21.7243 40.723 18.2409 36.444 18.2409V18.2378ZM36.444 32.4388C32.8922 32.4388 30.0054 29.5489 30.0054 26.0002C30.0054 22.4515 32.8922 19.5616 36.444 19.5616C39.9958 19.5616 42.8827 22.4515 42.8827 26.0002C42.8827 29.5489 39.9927 32.4388 36.444 32.4388Z" fill="#917145"/>
</g>
<defs>
<clipPath id="clip0_615_4746">
<rect width="72.9349" height="52" fill="white"/>
</clipPath>
</defs>
</svg>
