<svg width="52" height="62" viewBox="0 0 52 62" fill="none" xmlns="http://www.w3.org/2000/svg">
<g clip-path="url(#clip0_615_4770)">
<path d="M7.95852 2.25144V2.22592H7.70852C4.68614 2.22592 2.22592 4.68614 2.22592 7.70852V28.9708C2.22592 31.9939 4.68693 34.4278 7.683 34.4278H28.9708C31.994 34.4278 34.4279 31.9668 34.4279 28.9708V7.70852C34.4279 4.68534 31.9668 2.25144 28.9708 2.25144H7.95852ZM28.9708 36.4293H7.70852C3.60892 36.4293 0.25 33.0948 0.25 28.9708V7.70852C0.25 3.58393 3.58393 0.25 7.70852 0.25H28.9708C33.0704 0.25 36.4293 3.58447 36.4293 7.70852V28.9708C36.4293 33.0704 33.0948 36.4293 28.9708 36.4293Z" fill="#917145" stroke="#E1DBD3" stroke-width="0.5"/>
<path d="M18.3268 29.3331C12.2623 29.3331 7.32031 24.3911 7.32031 18.3267C7.32031 12.2629 12.2616 7.3457 18.3268 7.3457C24.3916 7.3457 29.3333 12.2881 29.3333 18.3267C29.3333 24.366 24.3909 29.3331 18.3268 29.3331ZM18.3268 9.32162C13.3645 9.32162 9.32175 13.3644 9.32175 18.3267C9.32175 23.2889 13.3645 27.3317 18.3268 27.3317C23.2891 27.3317 27.3318 23.2889 27.3318 18.3267C27.3318 13.3644 23.2891 9.32162 18.3268 9.32162Z" fill="#917145" stroke="#E1DBD3" stroke-width="0.5"/>
<path d="M14.1697 17.3524C14.1697 17.7494 13.8947 18.0847 13.5257 18.1776H13.3445C12.8762 18.1776 12.4938 17.7951 12.4938 17.3268C12.4938 14.6634 14.663 12.4942 17.3264 12.4942C17.7946 12.4942 18.1771 12.8767 18.1771 13.345C18.1771 13.8132 17.7946 14.1957 17.3264 14.1957C15.5739 14.1957 14.1697 15.6 14.1697 17.3524Z" fill="#917145" stroke="#E1DBD3" stroke-width="0.8"/>
<path d="M11.3507 41.9636V42.1636H11.5507H25.4493H25.6493V41.9636V37.0182C25.6493 36.6073 26.088 36.2 26.7247 36.2C27.3613 36.2 27.8 36.6073 27.8 37.0182V42.9818C27.8 43.3927 27.3613 43.8 26.7247 43.8H26.6986H10.2753C9.63869 43.8 9.2 43.3927 9.2 42.9818V37.0182C9.2 36.6073 9.63869 36.2 10.2753 36.2C10.912 36.2 11.3507 36.6073 11.3507 37.0182V41.9636Z" fill="#917145" stroke="#E1DBD3" stroke-width="0.4"/>
<path d="M18.3264 61.75C14.9676 61.75 12.2207 59.0031 12.2207 55.6443C12.2207 52.2854 14.9676 49.5386 18.3264 49.5386C21.6852 49.5386 24.4321 52.2854 24.4321 55.6443C24.4321 59.0031 21.6852 61.75 18.3264 61.75ZM18.3264 51.5145C16.0442 51.5145 14.1966 53.3621 14.1966 55.6443C14.1966 57.9264 16.0442 59.7741 18.3264 59.7741C20.6086 59.7741 22.4562 57.9264 22.4562 55.6443C22.4562 53.3621 20.6086 51.5145 18.3264 51.5145Z" fill="#917145" stroke="#E1DBD3" stroke-width="0.5"/>
<path d="M18.5 50.75C18.1281 50.75 17.8018 50.6513 17.5761 50.5049C17.3477 50.3568 17.25 50.1821 17.25 50.0273V43.9727C17.25 43.8179 17.3477 43.6432 17.5761 43.4951C17.8018 43.3487 18.1281 43.25 18.5 43.25C18.8719 43.25 19.1982 43.3487 19.4239 43.4951C19.6523 43.6432 19.75 43.8179 19.75 43.9727V50.0273C19.75 50.1821 19.6523 50.3568 19.4239 50.5049C19.1982 50.6513 18.8719 50.75 18.5 50.75Z" fill="#917145" stroke="#E1DBD3" stroke-width="0.5"/>
<path d="M21.8888 53.5563L21.889 53.5562L21.8845 53.5489C21.6025 53.0856 21.7599 52.4722 22.2336 52.183C22.234 52.1827 22.2344 52.1825 22.2348 52.1822L43.3668 39.6766L43.3668 39.6766L43.3695 39.675C43.8332 39.3928 44.4472 39.5507 44.7361 40.0254L44.9497 39.8954L44.7361 40.0254C45.0181 40.4886 44.8607 41.102 44.387 41.3912C44.3866 41.3915 44.3862 41.3918 44.3857 41.392L23.2538 53.8976L23.2537 53.8976L23.2486 53.9008C23.0879 54.0012 22.9305 54.0414 22.743 54.0414C22.3895 54.0414 22.0696 53.8777 21.8888 53.5563Z" fill="#917145" stroke="#E1DBD3" stroke-width="0.5"/>
<path d="M44.8529 52.5048V52.7548H45.1029H49.289H49.539V52.5048V29.5835V29.3335H49.289H45.1029H44.8529V29.5835V52.5048ZM50.5397 54.7308H43.8777C43.3266 54.7308 42.877 54.2811 42.877 53.73V28.3328C42.877 27.7817 43.3266 27.332 43.8777 27.332H50.5397C51.0908 27.332 51.5404 27.7817 51.5404 28.3328V53.73C51.5404 54.2811 51.0908 54.7308 50.5397 54.7308Z" fill="#917145" stroke="#E1DBD3" stroke-width="0.5"/>
</g>
<defs>
<clipPath id="clip0_615_4770">
<rect width="51.7645" height="62" fill="white"/>
</clipPath>
</defs>
</svg>
