<svg width="51" height="64" viewBox="0 0 51 64" fill="none" xmlns="http://www.w3.org/2000/svg">
<g clip-path="url(#clip0_615_4822)">
<path d="M46.3396 64H4.18851C1.87863 64 0 62.1214 0 59.8115V4.18851C0 1.87863 1.87863 0 4.18851 0H46.3396C48.6495 0 50.5281 1.87863 50.5281 4.18851V59.8102C50.5281 62.1201 48.6495 63.9987 46.3396 63.9987V64ZM4.18851 1.93673C2.94642 1.93673 1.93673 2.94771 1.93673 4.18851V59.8102C1.93673 61.0523 2.94771 62.062 4.18851 62.062H46.3396C47.5817 62.062 48.5914 61.051 48.5914 59.8102V4.18851C48.5914 2.94642 47.5804 1.93673 46.3396 1.93673H4.18851Z" fill="#917145" stroke="#E1DBD3" stroke-width="0.7"/>
<path d="M25.2637 51.9547C15.979 51.9547 8.42578 44.4015 8.42578 35.1168C8.42578 25.8321 15.979 18.2788 25.2637 18.2788C34.5484 18.2788 42.1017 25.8321 42.1017 35.1168C42.1017 44.4015 34.5484 51.9547 25.2637 51.9547ZM25.2637 20.2142C17.0468 20.2142 10.3625 26.8986 10.3625 35.1155C10.3625 43.3324 17.0468 50.0167 25.2637 50.0167C33.4807 50.0167 40.165 43.3324 40.165 35.1155C40.165 26.8986 33.4807 20.2142 25.2637 20.2142Z" fill="#917145" stroke="#E1DBD3" stroke-width="0.6"/>
<path d="M24.9069 29.1789C24.4176 29.1789 23.9979 28.8096 23.945 28.3125C23.8882 27.7806 24.2742 27.3042 24.8049 27.2473C25.0838 27.2176 25.3679 27.2021 25.6506 27.2021C26.1852 27.2021 26.619 27.636 26.619 28.1705C26.619 28.7051 26.1852 29.1389 25.6506 29.1389C25.4363 29.1389 25.2207 29.1505 25.0102 29.1725C24.9753 29.1763 24.9405 29.1776 24.9069 29.1776V29.1789Z" fill="#917145" stroke="#E1DBD3" stroke-width="0.5"/>
<path d="M18.7066 36.085C18.1721 36.085 17.7383 35.6512 17.7383 35.1167C17.7383 32.4427 19.0746 29.9675 21.3122 28.4982C21.7589 28.2051 22.3593 28.3291 22.6537 28.7758C22.9468 29.2225 22.8229 29.8229 22.3761 30.1173C20.6847 31.2277 19.675 33.0973 19.675 35.1167C19.675 35.6512 19.2412 36.085 18.7066 36.085Z" fill="#917145" stroke="#E1DBD3" stroke-width="0.5"/>
<path d="M25.867 46.9051C19.3674 46.9051 14.0801 41.6178 14.0801 35.1169C14.0801 28.6159 19.3674 23.3286 25.867 23.3286C30.2905 23.3286 34.3034 25.7728 36.3396 29.7082C36.5643 30.142 36.43 30.6753 36.0271 30.9516C34.6521 31.8954 33.8309 33.4526 33.8309 35.1169C33.8309 36.7812 34.6521 38.3383 36.0271 39.2821C36.43 39.5584 36.5643 40.0917 36.3396 40.5255C34.3034 44.461 30.2905 46.9051 25.867 46.9051ZM25.867 25.2666C20.4351 25.2666 16.0168 29.6863 16.0168 35.1182C16.0168 40.55 20.4364 44.9697 25.867 44.9697C29.2976 44.9697 32.4339 43.2098 34.2273 40.328C32.7541 39.011 31.8954 37.1207 31.8954 35.1194C31.8954 33.1182 32.7541 31.2279 34.2273 29.9109C32.4339 27.0291 29.2976 25.2692 25.867 25.2692V25.2666Z" fill="#917145" stroke="#E1DBD3" stroke-width="0.6"/>
<path d="M45.4419 10.3889H5.08555C4.55102 10.3889 4.11719 9.95505 4.11719 9.42052C4.11719 8.88598 4.55102 8.45215 5.08555 8.45215H45.4419C45.9765 8.45215 46.4103 8.88598 46.4103 9.42052C46.4103 9.95505 45.9765 10.3889 45.4419 10.3889Z" fill="#917145" stroke="#E1DBD3" stroke-width="0.5"/>
<path d="M7.65495 6.37326H5.08555C4.55102 6.37326 4.11719 5.93943 4.11719 5.40489C4.11719 4.87035 4.55102 4.43652 5.08555 4.43652H7.65495C8.18949 4.43652 8.62332 4.87035 8.62332 5.40489C8.62332 5.93943 8.18949 6.37326 7.65495 6.37326Z" fill="#917145"/>
<path d="M13.9128 6.37326H11.3434C10.8088 6.37326 10.375 5.93943 10.375 5.40489C10.375 4.87035 10.8088 4.43652 11.3434 4.43652H13.9128C14.4473 4.43652 14.8811 4.87035 14.8811 5.40489C14.8811 5.93943 14.4473 6.37326 13.9128 6.37326Z" fill="#917145"/>
<path d="M44.8634 5.55731C44.9474 5.03996 44.5961 4.5525 44.0787 4.46852C43.5614 4.38454 43.0739 4.73586 42.9899 5.2532C42.906 5.77055 43.2573 6.25802 43.7746 6.342C44.292 6.42597 44.7794 6.07466 44.8634 5.55731Z" fill="#917145"/>
<path d="M41.0963 5.67685C41.2467 5.17476 40.9615 4.64585 40.4594 4.4955C39.9573 4.34516 39.4284 4.6303 39.2781 5.13239C39.1277 5.63448 39.4129 6.16339 39.915 6.31373C40.4171 6.46408 40.946 6.17894 41.0963 5.67685Z" fill="#917145"/>
<path d="M37.1186 6.07534C37.4892 5.70473 37.4892 5.10386 37.1186 4.73325C36.748 4.36264 36.1471 4.36265 35.7765 4.73325C35.4059 5.10386 35.4059 5.70473 35.7765 6.07534C36.1471 6.44595 36.748 6.44595 37.1186 6.07534Z" fill="#917145"/>
</g>
<defs>
<clipPath id="clip0_615_4822">
<rect width="50.5281" height="64" fill="white"/>
</clipPath>
</defs>
</svg>
