<svg width="102" height="64" viewBox="0 0 102 64" fill="none" xmlns="http://www.w3.org/2000/svg">
<g clip-path="url(#clip0_615_4762)">
<path d="M82.5728 26.6405L82.5739 26.6454C92.8314 26.6454 101.176 34.9903 101.176 45.2478C101.176 55.5053 92.8314 63.8502 82.5739 63.8502C72.3164 63.8502 63.9715 55.5053 63.9715 45.2478C63.9715 37.6659 68.5394 31.1353 75.0653 28.2436L75.1949 28.1862L75.145 28.0536L71.1446 17.4258L71.0434 17.1568L70.8806 17.3937L51.3897 45.7577L51.3891 45.7585C51.3044 45.8835 51.1859 45.9762 51.0428 46.0466C51.027 46.0532 51.0144 46.0616 51.0048 46.0696C51.0028 46.0712 51.0009 46.0729 50.9991 46.0745C50.8884 46.1216 50.7705 46.1438 50.6557 46.1438H37.4502H37.3083L37.3005 46.2855C36.7594 56.0631 29.0105 63.8502 18.7524 63.8502C8.49487 63.8502 0.15 55.5103 0.15 45.2478C0.15 34.9854 8.49492 26.6405 18.7524 26.6405C21.8687 26.6405 24.9027 27.4564 27.6231 28.9372L27.7477 29.005L27.8224 28.8843L36.0758 15.545L36.118 15.4769L36.0848 15.404L33.0214 8.67234L32.9814 8.58447H32.8848H28.017C27.5199 8.58447 27.1211 8.18567 27.1211 7.68854C27.1211 7.19141 27.5199 6.79261 28.017 6.79261H39.5817C40.0789 6.79261 40.4777 7.19141 40.4777 7.68854C40.4777 8.18567 40.0789 8.58447 39.5817 8.58447H35.1849H34.9518L35.0484 8.79662L37.6706 14.5567L37.7106 14.6445H37.8071H69.8939H70.1106L70.0343 14.4417L67.4219 7.49693L67.4218 7.49661C66.8142 5.89249 66.719 4.22139 67.1265 2.0905L67.1615 1.90758L66.9753 1.91238C66.3734 1.92788 65.3335 2.1888 64.2966 2.53341C63.256 2.87924 62.1923 3.31814 61.5395 3.70273L61.5376 3.70393C61.1164 3.96085 60.5686 3.81574 60.3119 3.38832C60.0625 2.96474 60.2016 2.41931 60.6232 2.16845C60.6257 2.16719 60.6311 2.16435 60.6404 2.15962L60.694 2.13237C60.7403 2.10903 60.8071 2.07574 60.8921 2.0343C61.0619 1.95143 61.3041 1.83607 61.5994 1.70281C62.1903 1.43615 62.9925 1.09845 63.8531 0.805847C64.7148 0.512848 65.6291 0.267152 66.4455 0.18122C67.2685 0.0945885 67.9592 0.174038 68.4034 0.493735L68.4035 0.493822C68.8949 0.846685 69.1017 1.41799 68.9591 2.08033L68.959 2.08052C68.5438 4.02156 68.5802 5.50033 69.0993 6.86929L76.8272 27.4058L76.8772 27.5388L77.0127 27.4961C78.7696 26.9415 80.6343 26.6416 82.5728 26.6405ZM69.2046 16.6763L69.366 16.4413H69.0809H38.7589H38.5258L38.6224 16.6535L50.7076 43.1933L50.8175 43.4347L50.9677 43.2161L69.2046 16.6763ZM49.0348 44.3519H49.2679L49.1713 44.1397L37.1307 17.699L37.0144 17.4435L36.8666 17.6823L28.8363 30.6597L28.9638 30.7386L28.8363 30.6597L23.8743 38.6802L23.8048 38.7925L23.9075 38.8757C25.5191 40.1805 26.6141 42.0643 26.8867 44.2207L26.9033 44.3519H27.0355H49.0348ZM26.7219 30.6689L26.806 30.533L26.6651 30.4577C24.2356 29.1579 21.5346 28.4373 18.7524 28.4373C9.48419 28.4373 1.94186 35.9796 1.94186 45.2478C1.94186 54.516 9.48419 62.0584 18.7524 62.0584C27.6615 62.0584 34.9034 55.0753 35.4585 46.3032L35.4686 46.1438H35.3088H27.0355H26.9034L26.8867 46.2748C26.3705 50.3314 22.9425 53.4851 18.7524 53.4851C14.2103 53.4851 10.5151 49.7899 10.5151 45.2478C10.5151 40.7058 14.2103 37.0106 18.7524 37.0106C19.9731 37.0106 21.1266 37.2926 22.1692 37.775L22.2898 37.8307L22.3598 37.7177L26.7219 30.6689ZM75.8984 30.0315L75.842 29.8817L75.6962 29.9477C69.8603 32.588 65.7733 38.4346 65.7733 45.2478C65.7733 54.466 73.2344 61.9768 82.4338 62.0577V62.0633H82.5838C91.852 62.0633 99.3944 54.521 99.3944 45.2528C99.3944 35.9846 91.852 28.4423 82.5838 28.4423C80.8642 28.4423 79.2427 28.7732 77.6868 29.2519L77.5343 29.2988L77.5905 29.4481L80.4953 37.1662L80.5422 37.2906L80.6713 37.2591C81.2924 37.1075 81.9245 37.0106 82.5838 37.0106C87.1259 37.0106 90.8211 40.7058 90.8211 45.2478C90.8211 49.7899 87.1259 53.4851 82.5838 53.4851C78.0418 53.4851 74.3466 49.7899 74.3466 45.2478C74.3466 42.0998 76.1467 39.3829 78.7579 37.9994L78.8745 37.9376L78.828 37.814L75.8984 30.0315ZM18.7524 51.6932C22.3051 51.6932 25.1978 48.8006 25.1978 45.2478C25.1978 41.6951 22.3051 38.8024 18.7524 38.8024C15.1996 38.8024 12.307 41.6951 12.307 45.2478C12.307 48.8006 15.1996 51.6932 18.7524 51.6932ZM89.0293 45.2478C89.0293 41.6951 86.1366 38.8024 82.5838 38.8024C79.0311 38.8024 76.1384 41.6951 76.1384 45.2478C76.1384 48.8006 79.0311 51.6932 82.5838 51.6932C86.1366 51.6932 89.0293 48.8006 89.0293 45.2478Z" fill="#917145" stroke="#E1DBD3" stroke-width="0.3"/>
</g>
<defs>
<clipPath id="clip0_615_4762">
<rect width="101.336" height="64" fill="white"/>
</clipPath>
</defs>
</svg>
