<svg width="65" height="64" viewBox="0 0 65 64" fill="none" xmlns="http://www.w3.org/2000/svg">
<g clip-path="url(#clip0_615_4834)">
<path d="M55.079 47.6903C54.8114 47.4227 54.4314 47.4334 53.9871 47.6983C53.6044 46.9971 53.2056 46.1353 52.7827 45.2227C51.9183 43.3492 50.9387 41.2242 49.6942 39.5836L49.2446 39.0082C52.0066 36.1846 54.244 33.4226 56.0425 30.5803C56.1255 30.4518 56.1496 30.2939 56.1148 30.1467C56.08 29.9968 55.9863 29.8684 55.8552 29.7881C52.111 27.5319 49.6139 23.8412 47.1971 20.2709C44.0818 15.6675 40.8595 10.909 34.9073 8.89901C34.6878 8.8214 34.4309 8.89634 34.281 9.08101C30.245 14.1367 25.1974 18.3734 20.3184 22.4736C14.1574 27.6443 7.78761 32.9917 3.29667 40.0841C3.2137 40.2152 3.18961 40.3704 3.2244 40.5176C3.2592 40.6675 3.35287 40.796 3.48401 40.8763C7.22825 43.1324 9.72798 46.8232 12.1421 50.3934C15.2574 54.9941 18.4797 59.7527 24.4293 61.7626C24.4882 61.7841 24.5497 61.7921 24.6113 61.7921C24.7799 61.7921 24.9458 61.7145 25.0555 61.578C27.946 57.9568 31.2567 54.8844 33.9224 52.5399C36.1678 54.9513 37.1688 55.6177 40.2038 56.062C41.3091 56.2199 42.642 56.7953 43.5707 57.3493C43.3325 57.7668 43.3111 58.1174 43.5278 58.3904C43.9909 58.9658 45.1417 60.312 46.1828 61.5298C47.0553 62.5522 47.8529 63.4835 48.0857 63.778C48.1981 63.9198 48.364 63.9947 48.53 63.9947C48.6558 63.9947 48.7789 63.9546 48.8833 63.8689C49.1295 63.6736 49.1696 63.3176 48.9743 63.0714C48.7387 62.7743 47.9331 61.8296 47.0473 60.7938C46.1186 59.7072 45.1015 58.5189 44.5743 57.8739C44.6011 57.8284 44.6385 57.7749 44.6921 57.7053C46.057 55.6284 52.7693 49.5959 54.5197 48.6966C55.9515 49.9224 62.6665 55.8265 63.1563 56.3243C63.44 56.6856 64.176 56.4741 64.176 55.9763C64.176 55.3768 55.1326 47.7251 55.0817 47.6876L55.079 47.6903ZM24.4186 60.5583C19.0739 58.6045 16.162 54.3063 13.0841 49.7591C10.7049 46.2424 8.24795 42.6159 4.56794 40.2179C8.94916 33.5109 15.0995 28.3482 21.0517 23.3487C25.8745 19.3021 30.8579 15.1162 34.9206 10.1114C40.268 12.0652 43.1799 16.3634 46.2577 20.9106C48.637 24.4246 51.0939 28.0538 54.7739 30.4518C53.0932 33.0265 51.0297 35.5423 48.5246 38.1169C45.1256 34.0569 38.7773 27.5399 38.7345 27.4998C38.3089 27.0046 37.6773 26.7049 37.0189 26.6781C36.3766 26.6407 35.6995 26.8601 35.191 27.3205C34.827 27.6577 34.5861 28.0832 34.4683 28.5382L33.8608 27.8691C32.9482 26.8628 31.3343 26.7959 30.3387 27.6898C29.972 28.0136 29.7151 28.4311 29.592 28.8942L29.2441 28.5141C28.8051 28.0297 28.1949 27.7353 27.4991 27.6818C26.8112 27.6577 26.2091 27.8905 25.722 28.3321C25.2268 28.7684 24.9324 29.3759 24.895 30.0396C24.8575 30.7141 25.0877 31.3644 25.5426 31.8676L25.8932 32.253C25.4169 32.3306 24.9726 32.5394 24.6113 32.8659C24.1268 33.3155 23.8378 33.9284 23.803 34.5921C23.7682 35.2666 23.9984 35.9062 24.4453 36.3907L30.6893 43.277C30.2316 43.3653 29.8007 43.5821 29.4421 43.9086C28.9229 44.377 28.6071 45.03 28.575 45.6964C28.5482 46.2959 28.7489 46.8606 29.137 47.2835L33.1489 51.7129C30.5287 54.0172 27.2957 57.0174 24.4212 60.561L24.4186 60.5583ZM44.2344 56.434C43.1799 55.789 41.6624 55.1279 40.3644 54.9433C37.6264 54.5418 36.8931 54.1056 34.388 51.381C34.388 51.381 34.388 51.3783 34.388 51.3757C34.388 51.3757 34.3854 51.3757 34.3827 51.373C34.3773 51.3676 34.372 51.3623 34.3666 51.3569C34.3078 51.2954 34.2275 51.2204 34.1418 51.1134L29.9774 46.5127C29.7927 46.312 29.699 46.039 29.7124 45.7446C29.7285 45.3779 29.9078 45.0139 30.2049 44.749C30.7428 44.2619 31.5752 44.2538 31.982 44.6954L31.9927 44.7088C31.9927 44.7088 31.998 44.7088 32.0007 44.7115L36.497 49.6815C36.6094 49.8073 36.7647 49.8689 36.9199 49.8689C37.0564 49.8689 37.1929 49.818 37.2999 49.7217C37.5354 49.5102 37.5515 49.1516 37.3401 48.9188L32.8304 43.9354C32.8304 43.9354 32.8277 43.9354 32.825 43.9354L32.8197 43.93L25.283 35.6199C25.0422 35.3603 24.9217 35.015 24.9405 34.651C24.9592 34.2844 25.1171 33.9471 25.3794 33.7036C25.6417 33.4654 26.0083 33.3262 26.375 33.361C26.7176 33.3717 27.0468 33.5323 27.3064 33.808C27.3171 33.8187 27.3358 33.816 27.3465 33.8267C27.3519 33.8347 27.3492 33.8454 27.3572 33.8535L35.4291 42.7551C35.5416 42.8782 35.6968 42.9424 35.852 42.9424C35.9885 42.9424 36.125 42.8916 36.2347 42.7952C36.4676 42.5838 36.4836 42.2252 36.2749 41.9896L28.203 33.088C28.1896 33.0746 28.1682 33.0773 28.1548 33.0639C28.1467 33.0559 28.1521 33.0425 28.1441 33.0345L26.3857 31.1048C26.1368 30.8292 26.011 30.4732 26.0324 30.1066C26.0538 29.7479 26.2091 29.4214 26.4794 29.1859C26.7524 28.937 27.0521 28.8192 27.4348 28.8219C27.8149 28.8513 28.1601 29.0146 28.401 29.2796L30.1353 31.1798C30.1353 31.1798 30.1513 31.2012 30.1621 31.2092C30.1701 31.2172 30.1808 31.2146 30.1888 31.2226C30.1995 31.236 30.1942 31.2574 30.2049 31.2708L38.2768 40.1724C38.3892 40.2955 38.5444 40.3597 38.6997 40.3597C38.8362 40.3597 38.9727 40.3089 39.0824 40.2125C39.3152 40.0011 39.3313 39.6425 39.1225 39.4069L31.0506 30.5053C31.0506 30.5053 31.0265 30.4973 31.0158 30.4893C31.0051 30.4759 31.0105 30.4545 30.9998 30.4411L30.9783 30.4197C30.7455 30.1601 30.6277 29.8229 30.6465 29.4696C30.6625 29.1109 30.8204 28.7818 31.0934 28.5436C31.6394 28.0484 32.5173 28.0859 33.0124 28.6372L35.0116 30.8426C35.0116 30.8426 35.0116 30.8559 35.017 30.8586L41.1245 37.5924C41.2369 37.7155 41.3894 37.7797 41.5447 37.7797C41.6811 37.7797 41.8176 37.7289 41.9274 37.6325C42.1602 37.4211 42.1763 37.0624 41.9648 36.8269L35.8708 30.1092C35.8708 30.1092 35.8707 30.0958 35.8654 30.0905C35.3703 29.5285 35.4131 28.664 35.9537 28.1662C36.2267 27.9173 36.58 27.7808 36.9467 27.8209C37.308 27.8343 37.6452 27.9922 37.8887 28.2732C37.9583 28.3455 44.8098 35.3763 48.0429 39.332L48.7923 40.2875C49.9511 41.8157 50.9039 43.8818 51.7443 45.7044C52.1859 46.6626 52.6088 47.5672 53.0182 48.3139C50.6042 50.0401 45.9714 54.3143 44.2317 56.4393L44.2344 56.434Z" fill="#BF83B3"/>
<path d="M5.50781 20.2603C5.50781 22.5727 7.3893 24.4568 9.70168 24.4568C12.0141 24.4568 13.8956 22.5753 13.8956 20.2603C13.8956 17.9452 12.0141 16.0664 9.70168 16.0664C7.3893 16.0664 5.50781 17.9479 5.50781 20.2603ZM9.70168 17.2039C11.3851 17.2039 12.7581 18.5742 12.7581 20.2603C12.7581 21.9464 11.3878 23.3167 9.70168 23.3167C8.01557 23.3167 6.64527 21.9464 6.64527 20.2603C6.64527 18.5742 8.01557 17.2039 9.70168 17.2039Z" fill="#BF83B3"/>
<path d="M5.81316 15.2176C7.27446 15.2176 8.46544 14.0266 8.46544 12.5627C8.46544 11.0987 7.27446 9.90771 5.81316 9.90771C4.35186 9.90771 3.1582 11.0987 3.1582 12.5627C3.1582 14.0266 4.34919 15.2176 5.81316 15.2176ZM5.81316 11.0478C6.64819 11.0478 7.32531 11.7276 7.32531 12.5627C7.32531 13.3977 6.64551 14.0775 5.81316 14.0775C4.98081 14.0775 4.29834 13.3977 4.29834 12.5627C4.29834 11.7276 4.97813 11.0478 5.81316 11.0478Z" fill="#BF83B3"/>
<path d="M23.4772 50.894C22.0132 50.894 20.8223 52.085 20.8223 53.549C20.8223 55.013 22.0132 56.204 23.4772 56.204C24.9412 56.204 26.1322 55.013 26.1322 53.549C26.1322 52.085 24.9412 50.894 23.4772 50.894ZM23.4772 55.0638C22.6422 55.0638 21.9624 54.384 21.9624 53.549C21.9624 52.714 22.6422 52.0342 23.4772 52.0342C24.3122 52.0342 24.992 52.714 24.992 53.549C24.992 54.384 24.3122 55.0638 23.4772 55.0638Z" fill="#BF83B3"/>
<path d="M53.4494 7.11918C55.1141 7.11918 56.471 5.76493 56.471 4.10023C56.471 2.43553 55.1141 1.07861 53.4494 1.07861C51.7847 1.07861 50.4277 2.43553 50.4277 4.10023C50.4277 5.76493 51.7847 7.11918 53.4494 7.11918ZM53.4494 2.21607C54.4878 2.21607 55.3308 3.0618 55.3308 4.09756C55.3308 5.13331 54.4851 5.97904 53.4494 5.97904C52.4136 5.97904 51.5679 5.13599 51.5679 4.09756C51.5679 3.05913 52.4136 2.21607 53.4494 2.21607Z" fill="#BF83B3"/>
<path d="M3.72827 52.7056C3.41246 52.7056 3.1582 52.9598 3.1582 53.2756V54.8493C3.1582 55.1652 3.41246 55.4194 3.72827 55.4194C4.04408 55.4194 4.29834 55.1652 4.29834 54.8493V53.2756C4.29834 52.9598 4.04408 52.7056 3.72827 52.7056Z" fill="#BF83B3"/>
<path d="M3.72827 57.4482C3.41246 57.4482 3.1582 57.7025 3.1582 58.0183V59.592C3.1582 59.9078 3.41246 60.1621 3.72827 60.1621C4.04408 60.1621 4.29834 59.9078 4.29834 59.592V58.0183C4.29834 57.7025 4.04408 57.4482 3.72827 57.4482Z" fill="#BF83B3"/>
<path d="M6.88596 55.8638H5.31225C4.99644 55.8638 4.74219 56.118 4.74219 56.4338C4.74219 56.7496 4.99644 57.0039 5.31225 57.0039H6.88596C7.20177 57.0039 7.45603 56.7496 7.45603 56.4338C7.45603 56.118 7.20177 55.8638 6.88596 55.8638Z" fill="#BF83B3"/>
<path d="M2.14377 55.8638H0.570067C0.254255 55.8638 0 56.118 0 56.4338C0 56.7496 0.254255 57.0039 0.570067 57.0039H2.14377C2.45958 57.0039 2.71384 56.7496 2.71384 56.4338C2.71384 56.118 2.45958 55.8638 2.14377 55.8638Z" fill="#BF83B3"/>
<path d="M23.4763 2.71384C23.7921 2.71384 24.0464 2.45958 24.0464 2.14377V0.570067C24.0464 0.254255 23.7921 0 23.4763 0C23.1605 0 22.9062 0.254255 22.9062 0.570067V2.14377C22.9062 2.45958 23.1605 2.71384 23.4763 2.71384Z" fill="#BF83B3"/>
<path d="M23.4763 7.45651C23.7921 7.45651 24.0464 7.20226 24.0464 6.88645V5.31274C24.0464 4.99693 23.7921 4.74268 23.4763 4.74268C23.1605 4.74268 22.9062 4.99693 22.9062 5.31274V6.88645C22.9062 7.20226 23.1605 7.45651 23.4763 7.45651Z" fill="#BF83B3"/>
<path d="M25.0623 4.29834H26.636C26.9518 4.29834 27.206 4.04408 27.206 3.72827C27.206 3.41246 26.9518 3.1582 26.636 3.1582H25.0623C24.7464 3.1582 24.4922 3.41246 24.4922 3.72827C24.4922 4.04408 24.7464 4.29834 25.0623 4.29834Z" fill="#BF83B3"/>
<path d="M20.3181 4.29834H21.8918C22.2076 4.29834 22.4619 4.04408 22.4619 3.72827C22.4619 3.41246 22.2076 3.1582 21.8918 3.1582H20.3181C20.0023 3.1582 19.748 3.41246 19.748 3.72827C19.748 4.04408 20.0023 4.29834 20.3181 4.29834Z" fill="#BF83B3"/>
</g>
<defs>
<clipPath id="clip0_615_4834">
<rect width="64.174" height="64" fill="white"/>
</clipPath>
</defs>
</svg>
