<svg width="64" height="64" viewBox="0 0 64 64" fill="none" xmlns="http://www.w3.org/2000/svg">
<g clip-path="url(#clip0_615_4781)">
<path d="M62.9457 32.6462H54.2524L53.9668 29.7021H61.0053C61.3202 29.7021 61.5738 29.4486 61.5738 29.1336V15.0407C61.5738 14.7257 61.3202 14.4722 61.0053 14.4722H41.3045C40.9896 14.4722 40.736 14.7257 40.736 15.0407V29.1336C40.736 29.4486 40.9896 29.7021 41.3045 29.7021H48.343L48.0574 32.6462H36.2279L35.6941 20.9074C35.5473 17.6938 32.9128 15.1741 29.6939 15.1741C29.6458 15.1741 29.6058 15.2008 29.5604 15.2142C29.5257 15.2222 29.4964 15.2275 29.4617 15.2435C29.3416 15.2996 29.2348 15.3823 29.1787 15.5078L25.789 22.976L22.3992 15.5078C22.3512 15.4064 22.2524 15.3236 22.1376 15.2649C22.0762 15.2329 22.0202 15.2249 21.9508 15.2168C21.8947 15.2035 21.8414 15.1768 21.7906 15.1768C18.5744 15.1768 15.9373 17.6965 15.7905 20.9101L15.254 32.6488H10.6364V32.3419C10.6364 29.889 8.63992 27.8951 6.18701 27.8951C3.73409 27.8951 1.74026 29.8916 1.74026 32.3419V32.6488H0.568521C0.253566 32.6488 0 32.9024 0 33.2174V63.437C0 63.752 0.253566 64.0056 0.568521 64.0056H62.9457C63.2607 64.0056 63.5142 63.752 63.5142 63.437V33.212C63.5142 32.8971 63.2607 32.6435 62.9457 32.6435V32.6462ZM41.8704 15.6092H60.4367V28.5651H41.8704V15.6065V15.6092ZM52.8271 29.7021L53.1127 32.6408H49.1971L49.48 29.7021H52.8271ZM16.9195 20.9581C17.0343 18.4678 18.9881 16.4927 21.5184 16.3219L25.2685 24.5828C25.3592 24.783 25.5621 24.9164 25.7863 24.9164C26.0105 24.9164 26.2107 24.7856 26.3041 24.5828L30.0542 16.3219C32.4965 16.5007 34.4476 18.4732 34.5624 20.9581L35.0935 32.6408H16.3857L16.9195 20.9581ZM2.8693 32.3392C2.8693 30.5135 4.35332 29.0268 6.18167 29.0268C8.01001 29.0268 9.49404 30.5109 9.49404 32.3392V32.6462H2.8693V32.3392ZM62.3772 62.8659H1.13704V33.7805H62.3772V62.8659Z" fill="#BF83B3"/>
<path d="M6.88548 44.4353V52.2131C6.88548 52.528 7.13905 52.7816 7.454 52.7816C9.67204 52.7816 11.4764 54.5859 11.4764 56.804C11.4764 57.1189 11.7299 57.3725 12.0449 57.3725H51.4677C51.7826 57.3725 52.0362 57.1189 52.0362 56.804C52.0362 54.5859 53.8405 52.7816 56.0586 52.7816C56.3735 52.7816 56.6271 52.528 56.6271 52.2131V44.4353C56.6271 44.1203 56.3735 43.8668 56.0586 43.8668C53.8405 43.8668 52.0362 42.0624 52.0362 39.8444C52.0362 39.5294 51.7826 39.2759 51.4677 39.2759H12.0422C11.7273 39.2759 11.4737 39.5294 11.4737 39.8444C11.4737 42.0624 9.66937 43.8668 7.45133 43.8668C7.13638 43.8668 6.88281 44.1203 6.88281 44.4353H6.88548ZM8.02252 44.9718C10.414 44.7075 12.3198 42.8018 12.5814 40.4129H50.9312C51.1954 42.8044 53.1012 44.7075 55.49 44.9718V51.6766C53.0985 51.9408 51.1954 53.8466 50.9312 56.2354H12.5787C12.3171 53.8439 10.4114 51.9408 8.01985 51.6766V44.9718H8.02252Z" fill="#BF83B3"/>
<path d="M5.68766 27.1502H6.67256C6.98752 27.1502 7.24109 26.8967 7.24109 26.5817C7.24109 26.2667 6.98752 26.0132 6.67256 26.0132H5.68766C5.37271 26.0132 5.11914 26.2667 5.11914 26.5817C5.11914 26.8967 5.37271 27.1502 5.68766 27.1502Z" fill="#BF83B3"/>
<path d="M25.7376 12.9986C29.3222 12.9986 32.2369 10.0812 32.2369 6.49662C32.2369 2.912 29.3195 0 25.7376 0C22.1556 0 19.2383 2.91734 19.2383 6.49929C19.2383 10.0812 22.153 13.0013 25.7376 13.0013V12.9986ZM25.7376 1.13437C28.695 1.13437 31.0998 3.54191 31.0998 6.49662C31.0998 9.45133 28.695 11.8615 25.7376 11.8615C22.7802 11.8615 20.3753 9.45667 20.3753 6.49662C20.3753 3.53658 22.7802 1.13437 25.7376 1.13437Z" fill="#BF83B3"/>
</g>
<defs>
<clipPath id="clip0_615_4781">
<rect width="63.5142" height="64" fill="white"/>
</clipPath>
</defs>
</svg>
