<svg width="66" height="64" viewBox="0 0 66 64" fill="none" xmlns="http://www.w3.org/2000/svg">
<g clip-path="url(#clip0_615_4805)">
<path d="M61.938 25.9021H12.3604C8.45871 25.9021 4.55566 24.9761 1.06943 23.2231C0.251618 22.8116 -0.155966 21.937 0.0550809 21.0454C0.266128 20.155 1.02326 19.5562 1.93999 19.5562H61.938C63.6884 19.5562 65.1116 20.9794 65.1116 22.7298C65.1116 24.4801 63.6884 25.9034 61.938 25.9034V25.9021ZM2.11806 21.5334C5.29432 23.0991 8.82804 23.9222 12.3604 23.9222H61.938C62.5962 23.9222 63.1331 23.3867 63.1331 22.7271C63.1331 22.0676 62.5975 21.5321 61.938 21.5321H2.11806V21.5334Z" fill="#BF83B3" stroke="#292929" stroke-width="0.6"/>
<path d="M57.5667 21.5334C57.0206 21.5334 56.5774 21.0902 56.5774 20.5441C56.5774 19.9981 57.0206 19.5549 57.5667 19.5549C58.2922 19.5549 58.8831 18.9639 58.8831 18.2385V9.79922C58.8831 8.29023 58.0785 6.88281 56.7792 6.11777L52.9645 4.37267C52.7865 4.29089 52.6361 4.15899 52.5345 3.99279C52.367 3.7237 52.1362 3.3979 51.879 3.08397V20.5441C51.879 21.0902 51.4358 21.5334 50.8897 21.5334C50.3436 21.5334 49.9004 21.0902 49.9004 20.5441V0.989327C49.9004 0.666161 50.0574 0.3641 50.3225 0.178115C50.5876 -0.00655085 50.9253 -0.0513983 51.2287 0.0594013C52.495 0.521067 53.6056 2.02346 54.0514 2.69353L57.6471 4.33838C57.6748 4.35157 57.7025 4.36476 57.7289 4.38059C59.6613 5.49254 60.8616 7.56872 60.8616 9.79922V18.2385C60.8616 20.0548 59.383 21.5334 57.5667 21.5334Z" fill="#BF83B3" stroke="#292929" stroke-width="0.8"/>
<path d="M56.8604 21.5335C56.3143 21.5335 55.8711 21.0903 55.8711 20.5442V14.4107C55.8711 13.8646 56.3143 13.4214 56.8604 13.4214C57.4065 13.4214 57.8497 13.8646 57.8497 14.4107V20.5442C57.8497 21.0903 57.4065 21.5335 56.8604 21.5335Z" fill="#BF83B3" stroke="#292929" stroke-width="0.8"/>
<path d="M53.6397 17.9746C53.0936 17.9746 52.6504 17.5314 52.6504 16.9853V3.73684C52.6504 3.19076 53.0936 2.74756 53.6397 2.74756C54.1858 2.74756 54.629 3.19076 54.629 3.73684V16.9853C54.629 17.5314 54.1858 17.9746 53.6397 17.9746Z" fill="#BF83B3" stroke="#292929" stroke-width="0.8"/>
<path d="M36.0099 6.60169C35.4639 6.60169 35.0207 6.15849 35.0207 5.6124C35.0207 4.26302 33.9232 3.16558 32.5738 3.16558C31.2244 3.16558 30.127 4.26302 30.127 5.6124C30.127 6.15849 29.6838 6.60169 29.1377 6.60169C28.5916 6.60169 28.1484 6.15849 28.1484 5.6124C28.1484 3.17217 30.1336 1.18701 32.5738 1.18701C35.0141 1.18701 36.9992 3.17217 36.9992 5.6124C36.9992 6.15849 36.556 6.60169 36.0099 6.60169Z" fill="#BF83B3" stroke="#292929" stroke-width="0.8"/>
<path d="M32.5738 18.1788C30.1336 18.1788 28.1484 16.1937 28.1484 13.7534C28.1484 13.2074 28.5916 12.7642 29.1377 12.7642C29.6838 12.7642 30.127 13.2074 30.127 13.7534C30.127 15.1028 31.2244 16.2003 32.5738 16.2003C33.9232 16.2003 35.0207 15.1028 35.0207 13.7534C35.0207 13.2074 35.4639 12.7642 36.0099 12.7642C36.556 12.7642 36.9992 13.2074 36.9992 13.7534C36.9992 16.1937 35.0141 18.1788 32.5738 18.1788Z" fill="#BF83B3" stroke="#292929" stroke-width="0.8"/>
<path d="M29.4391 14.4763C26.9988 14.4763 25.0137 12.4911 25.0137 10.0509C25.0137 7.61065 26.9988 5.62549 29.4391 5.62549C30.2371 5.62549 31.0193 5.84049 31.7012 6.24676C32.1708 6.52639 32.3251 7.13315 32.0455 7.60273C31.7659 8.07231 31.1591 8.22664 30.6895 7.947C30.3136 7.72277 29.8809 7.60405 29.4404 7.60405C28.091 7.60405 26.9936 8.7015 26.9936 10.0509C26.9936 11.4003 28.091 12.4977 29.4404 12.4977C29.8519 12.4977 30.2569 12.3948 30.6143 12.1983C31.0931 11.9358 31.6946 12.1112 31.9571 12.59C32.2196 13.0689 32.0442 13.6703 31.5654 13.9328C30.9177 14.2876 30.183 14.4763 29.4404 14.4763H29.4391Z" fill="#BF83B3" stroke="#292929" stroke-width="0.8"/>
<path d="M47.3813 9.17635C47.3153 9.17635 47.2494 9.16976 47.1821 9.15657L34.5536 6.58179C34.0181 6.47231 33.6725 5.94997 33.782 5.41444C33.8914 4.87891 34.4138 4.53332 34.9493 4.6428L47.5778 7.21757C48.1134 7.32705 48.459 7.8494 48.3495 8.38493C48.2545 8.85319 47.8416 9.17635 47.3813 9.17635Z" fill="#BF83B3" stroke="#292929" stroke-width="0.8"/>
<path d="M34.7495 14.7443C34.276 14.7443 33.8579 14.404 33.7761 13.9213C33.6837 13.3831 34.0465 12.8713 34.5847 12.7803L47.2132 10.6302C47.7527 10.5392 48.2631 10.9006 48.3541 11.4388C48.4465 11.977 48.0837 12.4888 47.5456 12.5798L34.917 14.7298C34.8603 14.7391 34.8049 14.7443 34.7495 14.7443Z" fill="#BF83B3" stroke="#292929" stroke-width="0.8"/>
<path d="M56.2189 64C55.9788 64 55.7388 63.913 55.5488 63.7375L14.2483 25.6396C13.8473 25.2689 13.8209 24.6437 14.1915 24.2414C14.5622 23.8404 15.1874 23.814 15.5897 24.1847L56.8903 62.284C57.2913 62.6546 57.3177 63.2798 56.947 63.6821C56.7518 63.8932 56.4867 64.0013 56.2202 64.0013L56.2189 64Z" fill="#BF83B3" stroke="#292929" stroke-width="0.6"/>
<path d="M13.2821 64.0001C13.0156 64.0001 12.7492 63.8933 12.5553 63.6809C12.1846 63.2799 12.2097 62.6534 12.612 62.2827L34.0808 42.4786C34.4831 42.108 35.1083 42.133 35.4789 42.5353C35.8496 42.9363 35.8245 43.5629 35.4222 43.9335L13.9535 63.7376C13.7635 63.9131 13.5221 64.0001 13.2834 64.0001H13.2821Z" fill="#BF83B3" stroke="#292929" stroke-width="0.6"/>
<path d="M37.5035 41.6236C37.237 41.6236 36.9706 41.5168 36.7754 41.3044C36.4047 40.9021 36.4311 40.2769 36.8334 39.9062L53.9124 24.1846C54.3147 23.8139 54.9399 23.8403 55.3106 24.2426C55.6812 24.6449 55.6549 25.2701 55.2525 25.6408L38.1736 41.3625C37.9836 41.5379 37.7436 41.6236 37.5035 41.6236Z" fill="#BF83B3" stroke="#292929" stroke-width="0.6"/>
</g>
<defs>
<clipPath id="clip0_615_4805">
<rect width="65.112" height="64" fill="white"/>
</clipPath>
</defs>
</svg>
