<svg width="84" height="64" viewBox="0 0 84 64" fill="none" xmlns="http://www.w3.org/2000/svg">
<g clip-path="url(#clip0_615_4789)">
<path d="M76.0661 0.918908C73.1245 0.918908 70.4856 2.68044 69.309 5.34014H64.2402C64.0104 3.94763 63.5997 2.89976 62.8895 1.97374C62.8825 1.96329 62.8651 1.96678 62.8581 1.95633C61.1732 -0.177698 46.785 -0.0871847 40.0766 0.0764359C40.0731 0.0764359 40.0696 0.0694733 40.0661 0.0694733C40.007 0.0625107 39.9547 0.0729546 39.899 0.0799172C37.9704 0.128655 36.7206 0.180875 36.6649 0.184356C21.4064 0.877132 20.8285 2.56904 20.6092 3.19915C20.4839 3.55076 20.369 4.19828 20.2193 5.34711H14.1688C12.9922 2.6874 10.3499 0.92587 7.41166 0.92587C3.32463 0.918908 0 4.24702 0 8.33057C0 12.4141 3.32463 15.7422 7.41166 15.7422C10.3534 15.7422 12.9922 13.9807 14.1688 11.321H19.6867C18.8094 23.2757 17.8869 49.9354 20.6162 56.9363C20.8668 57.5978 21.6641 58.0851 23.0983 58.4994C23.4256 59.871 23.7563 60.8876 24.1288 61.6326C24.9504 63.3314 31.4778 63.9998 39.1889 63.9998C49.5875 63.9998 62.1445 62.7849 65.7929 61.2427C67.45 60.5429 67.5474 59.7074 67.3386 59.1295C64.376 51.0146 64.5048 35.9476 64.6058 23.8432C64.644 19.2096 64.6754 14.851 64.5396 11.3245H69.3055C70.4856 13.9842 73.1245 15.7457 76.0627 15.7457C80.1497 15.7457 83.4743 12.4211 83.4743 8.33405C83.4743 4.24702 80.1497 0.922389 76.0627 0.922389L76.0661 0.918908ZM69.8312 9.83797H69.8242H61.1976C61.2045 9.77182 61.215 9.69872 61.2219 9.63257C61.2881 9.1069 61.3507 8.61255 61.4134 8.17739C61.4134 8.17043 61.4134 8.16347 61.4134 8.15999C61.4796 7.69001 61.5457 7.27574 61.6084 6.89976C61.6118 6.87191 61.6188 6.84754 61.6223 6.82317H74.7676C75.5997 6.82317 76.275 7.49854 76.275 8.33057C76.275 9.1626 75.5997 9.83797 74.7676 9.83797H69.8277H69.8312ZM63.9095 49.9424C63.5474 50.1199 62.8547 50.3636 61.5492 50.6178C61.4796 50.1548 61.4064 49.7022 61.3403 49.2218C61.295 48.8736 61.2567 48.5081 61.215 48.153C61.1767 47.8362 61.1384 47.5194 61.1036 47.1991C62.1236 47.0181 62.9556 46.8162 63.5927 46.5934C63.6832 47.7353 63.7876 48.8597 63.913 49.9459L63.9095 49.9424ZM20.4143 43.3593C20.376 42.2836 20.3481 41.1765 20.3272 40.0416C23.4326 41.4167 31.7911 42.0434 40.0905 42.0434C48.3899 42.0434 56.0174 41.4585 59.0635 40.4176C59.1297 41.5699 59.2098 42.6978 59.3003 43.8119C54.1723 46.3985 23.631 46.0643 20.4178 43.3593H20.4143ZM61.96 5.34362C62.0644 4.9955 62.2002 4.59515 62.3916 4.10429C62.5379 4.4733 62.6527 4.88061 62.7398 5.34362H61.9565H61.96ZM29.0513 2.21395C28.557 5.29837 27.9617 13.4655 27.6554 21.7753C27.6414 22.1826 27.9582 22.5273 28.3655 22.5412H28.3934C28.7903 22.5412 29.1175 22.2279 29.1314 21.8275C29.4726 12.5777 30.1375 4.29924 30.5692 2.06425C31.1645 2.01203 31.7911 1.95981 32.4735 1.90759C34.6667 1.74745 36.9156 1.63605 39.1401 1.56295C38.7258 5.35059 38.3011 11.965 38.0574 18.5516C38.0435 18.9589 38.3603 19.3036 38.7711 19.3175H38.799C39.1958 19.3175 39.5231 19.0042 39.537 18.6038C39.7842 11.9267 40.2158 5.22526 40.6336 1.51769C43.7668 1.43762 46.8164 1.43762 49.591 1.4968C49.0827 4.2505 48.4212 13.0721 48.101 21.7683C48.087 22.1757 48.4038 22.5203 48.8111 22.5342H48.839C49.2359 22.5342 49.5631 22.2209 49.577 21.8206C49.9321 12.2575 50.6527 3.4324 51.0844 1.53161C56.3412 1.69523 60.3342 2.08862 61.4064 2.58993C60.832 3.89889 60.4491 5.01987 60.2681 5.93196C60.0592 7.00072 59.8538 8.44545 59.6171 10.4855C59.6171 10.4855 59.6171 10.489 59.6171 10.4924C58.8477 17.7335 58.4926 28.7414 58.9765 38.851C54.0818 41.3471 23.4813 41.0199 20.4073 38.4019C20.376 38.3741 20.3307 38.388 20.2959 38.3671C20.2019 28.6822 20.6789 17.5978 21.2185 10.6282C21.3542 8.8458 21.4935 7.33492 21.6049 6.1478C21.6745 5.57339 21.852 4.10429 21.9774 3.72831C22.0087 3.69001 22.7328 2.87539 29.0444 2.20698L29.0513 2.21395ZM19.9826 7.70046C19.9687 7.83971 19.9582 7.95111 19.9478 8.09384C19.899 8.6404 19.8503 9.21482 19.8016 9.83797H13.6571C13.6571 9.83797 13.6571 9.83797 13.6536 9.83797H8.57789C7.74935 9.83797 7.04613 9.14867 7.04613 8.33057C7.04613 7.51247 7.74587 6.82317 8.57789 6.82317H20.0592C20.0348 7.09471 20.007 7.40455 19.9791 7.70046H19.9826ZM7.41166 14.2627C4.14273 14.2627 1.48303 11.603 1.48303 8.33405C1.48303 5.06512 4.14273 2.40194 7.41166 2.40194C9.53873 2.40194 11.4743 3.55424 12.5222 5.34362H8.57441C6.91384 5.34362 5.5631 6.68392 5.5631 8.33405C5.5631 9.98418 6.91384 11.3245 8.57441 11.3245H12.5222C11.4708 13.1139 9.53873 14.2662 7.41166 14.2662V14.2627ZM21.9983 56.4037C21.1802 54.3079 20.7102 50.1443 20.4735 45.0547C23.7145 46.3706 32.0453 46.9694 40.2959 46.9694C48.5466 46.9694 56.4352 46.388 59.4291 45.3436C59.631 47.5403 59.8851 49.6395 60.1915 51.5716C60.1915 51.5821 60.181 51.5925 60.1845 51.603C60.1845 51.6134 60.1984 51.6204 60.2019 51.6308C60.5048 53.5003 60.8529 55.2305 61.2637 56.7448C59.6275 58.4298 41.866 59.2479 30.4091 58.1965C27.8399 57.9598 25.5805 57.6291 23.899 57.1939C22.242 56.7762 21.9983 56.4037 21.9983 56.4037ZM39.5683 62.4924H39.1018C29.1001 62.4924 25.7998 61.5107 25.4587 60.9781C25.2045 60.4698 24.9608 59.7805 24.7206 58.8928C24.8077 58.9102 24.9051 58.9241 24.9922 58.9415C25.0688 58.9555 25.1453 58.9694 25.2219 58.9833C25.7406 59.0738 26.3011 59.1609 26.9069 59.2409C26.9835 59.2514 27.0635 59.2618 27.1401 59.2723C27.7702 59.3558 28.4352 59.4324 29.1419 59.502C29.208 59.509 29.2742 59.5159 29.3438 59.5229C30.0749 59.596 30.8373 59.6587 31.6345 59.7213C31.6867 59.7248 31.7389 59.7283 31.7946 59.7318C32.6127 59.791 33.4587 59.8467 34.329 59.8919C34.3638 59.8919 34.4021 59.8954 34.4369 59.8989C35.3246 59.9441 36.2367 59.9859 37.1628 60.0172C37.1871 60.0172 37.208 60.0172 37.2324 60.0172C38.1723 60.0486 39.1227 60.0729 40.0801 60.0904C40.094 60.0904 40.1114 60.0904 40.1253 60.0904C41.6292 60.1147 43.1506 60.1217 44.651 60.1078C44.7311 60.1078 44.8111 60.1078 44.8947 60.1078C45.3473 60.1043 45.7998 60.0973 46.2454 60.0869C46.3603 60.0869 46.4787 60.0799 46.5936 60.0799C47.0078 60.0695 47.4186 60.059 47.8294 60.0486C47.9547 60.0451 48.0836 60.0416 48.2089 60.0347C48.6057 60.0207 48.9957 60.0068 49.3856 59.9894C49.5144 59.9824 49.6466 59.979 49.7755 59.972C50.1549 59.9546 50.5309 59.9337 50.9034 59.9163C51.0322 59.9093 51.161 59.9024 51.2863 59.8954C51.6693 59.8745 52.0453 59.8467 52.4143 59.8223C52.5187 59.8153 52.6266 59.8084 52.7276 59.8014C53.6745 59.7318 54.5831 59.6517 55.436 59.5577C55.4883 59.5508 55.537 59.5438 55.5892 59.5403C55.9513 59.4985 56.3064 59.4568 56.6475 59.4115C56.7659 59.3976 56.8773 59.3802 56.9922 59.3628C57.2568 59.3245 57.5178 59.2862 57.7685 59.2479C57.9008 59.227 58.0296 59.2026 58.1584 59.1817C58.3777 59.1434 58.5901 59.1052 58.7955 59.0669C58.9278 59.0425 59.0566 59.0146 59.1819 58.9868C59.3664 58.9485 59.5474 58.9067 59.7215 58.8649C59.8433 58.8371 59.9617 58.8058 60.0766 58.7744C60.2402 58.7327 60.3934 58.6874 60.5396 58.6421C60.644 58.6108 60.7485 58.5795 60.846 58.5447C60.9887 58.4959 61.1175 58.4472 61.2428 58.395C61.3264 58.3602 61.4134 58.3288 61.49 58.294C61.6188 58.2383 61.7267 58.1756 61.8346 58.1165C61.8903 58.0851 61.953 58.0573 62.0017 58.026C62.148 57.932 62.2733 57.838 62.3708 57.7405C62.8547 57.2496 62.8059 56.7379 62.7328 56.4803C62.5413 55.791 62.3638 55.0599 62.2002 54.2871C62.1514 54.0573 62.1097 53.7997 62.0609 53.5629C61.9635 53.0756 61.866 52.5882 61.7789 52.0764C62.7433 51.8919 63.5196 51.683 64.1114 51.4568C64.5292 54.4994 65.1036 57.2566 65.9147 59.5159C64.6823 60.8528 52.9017 62.4576 39.5753 62.4994L39.5683 62.4924ZM63.1297 23.8293C63.074 30.5447 63.0113 38.1582 63.4709 45.0477C63.0496 45.2392 62.2733 45.4759 60.9434 45.7196C60.926 45.556 60.9121 45.3889 60.8982 45.2218C60.846 44.6439 60.7903 44.073 60.7415 43.4811C60.7102 43.0703 60.6858 42.6491 60.6545 42.2348C60.6127 41.6361 60.5675 41.0442 60.5326 40.435C60.5083 40.0033 60.4909 39.5647 60.4665 39.1295C60.4352 38.5238 60.4038 37.918 60.3795 37.3088C60.3621 36.8597 60.3516 36.4106 60.3377 35.9581C60.3168 35.3558 60.2959 34.7501 60.282 34.1443C60.2715 33.6813 60.2681 33.2148 60.2576 32.7483C60.2472 32.153 60.2367 31.5542 60.2332 30.9589C60.2298 30.489 60.2332 30.026 60.2332 29.5595C60.2332 28.9711 60.2332 28.3863 60.2332 27.8014C60.2332 27.3245 60.2437 26.858 60.2507 26.3845C60.2576 25.8206 60.2646 25.2531 60.275 24.6926C60.2855 24.2122 60.2994 23.7457 60.3133 23.2723C60.3272 22.7361 60.3412 22.1965 60.3621 21.6709C60.3795 21.1974 60.4004 20.7344 60.4178 20.2714C60.4386 19.7631 60.4595 19.2514 60.4839 18.757C60.5083 18.2975 60.5326 17.8554 60.557 17.4098C60.5849 16.9328 60.6092 16.4524 60.6406 15.9894C60.6684 15.5473 60.6997 15.1226 60.7346 14.6978C60.7659 14.2592 60.7972 13.8206 60.832 13.3993C60.8668 12.9851 60.9017 12.5882 60.94 12.1913C60.9678 11.8954 60.9956 11.603 61.0235 11.321H63.0601C63.1958 14.8162 63.1575 19.2026 63.1192 23.8293H63.1297ZM76.0661 14.2592C73.9391 14.2592 72.007 13.1104 70.9556 11.3175H74.7676C76.4143 11.3175 77.7581 9.97722 77.7581 8.32709C77.7581 6.67696 76.4178 5.33666 74.7676 5.33666H70.9521C72 3.54728 73.9356 2.39497 76.0627 2.39497C79.3316 2.39497 81.9913 5.05468 81.9913 8.32361C81.9913 11.5925 79.3316 14.2522 76.0627 14.2522L76.0661 14.2592Z" fill="#BF83B3" stroke="#292929" stroke-width="0.3"/>
</g>
<defs>
<clipPath id="clip0_615_4789">
<rect width="83.4743" height="64" fill="white"/>
</clipPath>
</defs>
</svg>
