<svg width="72" height="66" viewBox="0 0 72 66" fill="none" xmlns="http://www.w3.org/2000/svg">
<path d="M36.1593 64.9999C22.6039 64.9999 16.2997 61.6117 16.0375 61.468C15.657 61.258 15.4428 60.8366 15.4992 60.4053L18.6477 36.2626C18.7238 35.6834 19.2538 35.2775 19.833 35.3507C20.4123 35.4268 20.8196 35.9568 20.7449 36.536L17.6964 59.9163C18.4138 60.2277 19.7414 60.7407 21.6934 61.2495C24.5587 61.9965 29.3943 62.8858 36.1593 62.8858C46.7945 62.8858 52.7618 60.7252 54.6222 59.9163L51.5455 36.536C51.4694 35.9568 51.8767 35.4268 52.456 35.3507C53.0338 35.2732 53.5651 35.6819 53.6413 36.2612L56.8194 60.4039C56.8758 60.8352 56.663 61.258 56.281 61.468C56.0189 61.6117 49.7147 64.9999 36.1593 64.9999Z" fill="#BF83B3" stroke="#292929" stroke-width="0.8"/>
<path d="M18.8854 33.0833C14.1401 33.0833 10.9365 32.1742 9.36367 30.3815C8.26294 29.1257 8.38837 27.8967 8.40529 27.7614C8.4222 27.629 8.46589 27.4993 8.53072 27.3823L17.0251 12.2287C17.0251 12.2287 17.0293 12.2202 17.0321 12.216C17.438 11.5155 17.9933 10.5571 19.4506 10.5571C20.0341 10.5571 20.5076 11.0307 20.5076 11.6142C20.5076 12.1976 20.0341 12.6712 19.4506 12.6712C19.2392 12.6712 19.211 12.6712 18.8643 13.2702L10.5179 28.1603C10.5518 28.3506 10.6631 28.6888 11.0197 29.0651C11.6553 29.7346 13.3917 30.8311 17.9778 30.9579L19.4126 21.6602C19.5013 21.0838 20.0411 20.6892 20.619 20.7766C21.1954 20.8653 21.5915 21.4051 21.5027 21.983L19.9284 32.1897C19.8495 32.7056 19.4055 33.0861 18.884 33.0861L18.8854 33.0833Z" fill="#BF83B3" stroke="#292929" stroke-width="0.8"/>
<path d="M36.2452 21.3812C30.8924 21.3812 26.8545 18.2735 24.9251 16.4216C24.5037 16.0171 24.4896 15.3477 24.894 14.9277C25.2985 14.5062 25.968 14.4922 26.388 14.8966C28.0891 16.5287 31.6309 19.2671 36.2438 19.2671C42.9581 19.2671 44.6705 17.0995 46.3251 15.0038C46.6873 14.5457 47.3511 14.4682 47.8092 14.829C48.2672 15.1912 48.3447 15.855 47.9839 16.3131C45.7938 19.0853 43.3992 21.3812 36.2424 21.3812H36.2452Z" fill="#BF83B3" stroke="#292929" stroke-width="0.8"/>
<path d="M30.4069 51.2276C30.0194 51.2276 29.6459 51.0134 29.4612 50.6427C29.2005 50.1198 29.4119 49.4856 29.9348 49.2249C37.4158 45.4872 43.121 39.9892 46.8911 32.8845C47.1645 32.3687 47.8043 32.1728 48.3202 32.4462C48.836 32.7196 49.0319 33.3595 48.7585 33.8753C44.7784 41.3774 38.7632 47.1785 30.8805 51.1163C30.7283 51.1924 30.5676 51.2276 30.4084 51.2276H30.4069Z" fill="#BF83B3" stroke="#292929" stroke-width="0.8"/>
<path d="M53.2913 33.0832C52.7698 33.0832 52.3258 32.7027 52.2469 32.1868L50.6726 21.9801C50.5838 21.4037 50.9785 20.8639 51.5563 20.7737C52.1327 20.6849 52.6725 21.0795 52.7627 21.6574L54.1975 30.955C58.7836 30.8268 60.52 29.7317 61.1556 29.0622C61.5249 28.6747 61.6306 28.3251 61.6602 28.1391L54.0622 13.2631C53.8451 12.8966 53.4477 12.6697 53.0192 12.6697C52.4358 12.6697 51.9622 12.1962 51.9622 11.6127C51.9622 11.0292 52.4358 10.5557 53.0192 10.5557C54.2116 10.5557 55.318 11.1983 55.9085 12.2342C55.9169 12.2483 55.924 12.2624 55.931 12.2765L63.6643 27.4175C63.7193 27.5246 63.7559 27.6416 63.7714 27.76C63.7897 27.8967 63.9152 29.1257 62.813 30.38C61.2402 32.1728 58.0366 33.0818 53.2913 33.0818V33.0832Z" fill="#BF83B3" stroke="#292929" stroke-width="0.8"/>
<path d="M22.2831 15.5953H19.8942C19.3389 15.5953 18.8781 15.1641 18.84 14.6102L18.3481 7.38429C18.3284 7.09254 18.4299 6.80503 18.63 6.5908C18.8301 6.37658 19.1092 6.25537 19.4023 6.25537H22.775C23.0681 6.25537 23.3472 6.37658 23.5473 6.5908C23.7475 6.80503 23.8489 7.09254 23.8292 7.38429L23.3373 14.6102C23.2993 15.1641 22.8384 15.5953 22.2831 15.5953ZM20.8822 13.4813H21.2951L21.6433 8.36944H20.5341L20.8822 13.4813Z" fill="#BF83B3" stroke="#292929" stroke-width="0.8"/>
<path d="M52.703 15.5953H50.3141C49.7588 15.5953 49.298 15.1641 49.2599 14.6102L48.768 7.38429C48.7483 7.09254 48.8498 6.80503 49.0499 6.5908C49.2501 6.37658 49.5291 6.25537 49.8223 6.25537H53.1949C53.4881 6.25537 53.7671 6.37658 53.9673 6.5908C54.1674 6.80503 54.2689 7.09254 54.2491 7.38429L53.7573 14.6102C53.7192 15.1641 53.2583 15.5953 52.703 15.5953ZM51.3021 13.4813H51.7151L52.0632 8.36944H50.954L51.3021 13.4813Z" fill="#BF83B3" stroke="#292929" stroke-width="0.8"/>
<path d="M15.6982 10.8767C15.5755 10.8767 15.4501 10.8556 15.3289 10.8105C5.69719 7.21798 1.47609 2.97433 1.30133 2.79534C0.892608 2.37816 0.901064 1.7087 1.31824 1.29998C1.73542 0.892673 2.40346 0.89972 2.81218 1.31549C2.85165 1.35636 6.92617 5.4182 16.0688 8.8289C16.6157 9.03326 16.8933 9.64211 16.6904 10.189C16.5311 10.6146 16.128 10.8767 15.6996 10.8767H15.6982Z" fill="#BF83B3" stroke="#292929" stroke-width="0.8"/>
<path d="M57.2619 10.8109C56.8391 10.8109 56.4417 10.5558 56.2782 10.14C56.0653 9.59597 56.3331 8.98289 56.8757 8.77007C65.4744 5.39742 69.6321 1.34545 69.6729 1.30599C70.0873 0.895856 70.7567 0.898675 71.1683 1.31444C71.5784 1.73021 71.5756 2.39826 71.1598 2.8098C70.9794 2.98738 66.6484 7.20988 57.6481 10.739C57.5212 10.7883 57.3902 10.8123 57.2619 10.8123V10.8109Z" fill="#BF83B3" stroke="#292929" stroke-width="0.8"/>
<path d="M35.8718 13.8269C28.1851 13.8269 23.3157 12.7403 23.014 12.6712C22.4447 12.5401 22.0895 11.9736 22.2206 11.4042C22.3516 10.8348 22.9182 10.4796 23.4876 10.6107C23.5397 10.622 26.2683 11.2336 30.7868 11.5367C34.9698 11.8157 41.5869 11.8806 49.3582 10.598C49.9346 10.5036 50.4787 10.8926 50.5731 11.469C50.6675 12.0455 50.2785 12.5895 49.7021 12.6839C44.5085 13.5408 39.8195 13.8269 35.8732 13.8269H35.8718Z" fill="#BF83B3" stroke="#292929" stroke-width="0.8"/>
<path d="M41.1777 53.9266C40.9396 53.9266 40.6986 53.8462 40.5012 53.6813C40.0531 53.3079 39.9925 52.6412 40.3659 52.193C40.4026 52.1494 44.0656 47.7436 45.6243 44.6951C45.8907 44.1751 46.5263 43.9693 47.0464 44.2357C47.5665 44.502 47.7722 45.1377 47.5059 45.6577C45.8386 48.9176 42.1446 53.36 41.9881 53.5475C41.7795 53.7983 41.4779 53.928 41.1763 53.928L41.1777 53.9266Z" fill="#BF83B3" stroke="#292929" stroke-width="0.8"/>
</svg>
