<svg width="179" height="130" viewBox="0 0 179 130" fill="none" xmlns="http://www.w3.org/2000/svg">
<path fill-rule="evenodd" clip-rule="evenodd" d="M38.2519 38.5646C38.7359 38.843 39.1281 39.2873 39.3609 39.773L39.9982 41.1176L41.6649 44.6123C41.7261 44.7367 41.622 44.8315 41.4933 44.7663L37.9577 42.9953L36.5791 42.3022C36.1072 42.0653 35.6783 41.6921 35.4271 41.2301C34.9001 40.2705 35.3842 39.6782 36.0398 39.0681C36.6955 38.458 37.247 37.9842 38.2457 38.5587L38.2519 38.5646Z" fill="#BF83B3"/>
<path fill-rule="evenodd" clip-rule="evenodd" d="M46.9149 34.2106C47.0252 35.0695 46.8291 35.9757 46.4185 36.7339L45.2911 38.813L42.3622 44.2269C42.258 44.4164 42.0313 44.3868 41.9945 44.1736L40.8732 38.1614L40.4381 35.8099C40.2911 35.0043 40.3585 34.1217 40.7139 33.3695C41.4492 31.8057 42.693 31.8117 44.1146 32.0249C45.5362 32.2381 46.6943 32.4454 46.921 34.2165L46.9149 34.2106Z" fill="#BF83B3"/>
<path fill-rule="evenodd" clip-rule="evenodd" d="M57.0808 38.0022C56.3149 38.8433 55.2671 39.5245 54.207 39.9214L51.2842 41.0113L43.68 43.8604C43.4104 43.9611 43.2695 43.7774 43.4533 43.5583L48.5391 37.404L50.5305 34.9991C51.2107 34.1758 52.1421 33.4295 53.1531 32.9971C55.2671 32.0967 56.2168 32.9556 57.0992 34.1166C57.9815 35.2775 58.6617 36.2608 57.0869 38.0022H57.0808Z" fill="#BF83B3"/>
<path fill-rule="evenodd" clip-rule="evenodd" d="M53.9287 43.4557C53.1137 43.0943 52.164 43.0055 51.2939 43.1536L48.9042 43.5682L42.6786 44.6462C42.4581 44.6818 42.4274 44.9009 42.6235 45.0016L48.2179 47.8389L50.4054 48.9466C51.1529 49.3256 52.0475 49.527 52.8931 49.4263C54.6579 49.2131 55.0255 48.0699 55.2461 46.6957C55.4667 45.3215 55.6076 44.1961 53.9287 43.4557Z" fill="#BF83B3"/>
<path fill-rule="evenodd" clip-rule="evenodd" d="M47.0308 50.1365C46.9021 49.6093 46.5835 49.1117 46.1729 48.7504L45.0393 47.7612L42.092 45.1727C41.9878 45.0839 41.8653 45.149 41.8837 45.2794L42.57 49.0703L42.8396 50.5511C42.9315 51.0605 43.1704 51.564 43.5504 51.9371C44.3408 52.7072 45.07 52.4465 45.8665 52.0201C46.6631 51.5936 47.2942 51.2323 47.0308 50.1365Z" fill="#BF83B3"/>
<path fill-rule="evenodd" clip-rule="evenodd" d="M76.4903 44.4997C75.9756 44.9617 75.2832 45.2579 74.5908 45.3527L72.6974 45.6133L67.7647 46.2885C67.5932 46.3122 67.5074 46.1582 67.6299 46.0338L71.092 42.5746L72.4461 41.2241C72.9118 40.7621 73.5307 40.4008 74.1863 40.2705C75.5589 40.0098 76.1288 40.7799 76.6435 41.7572C77.1582 42.7346 77.5503 43.5461 76.4841 44.4997H76.4903Z" fill="#BF83B3"/>
<path fill-rule="evenodd" clip-rule="evenodd" d="M78.7819 56.0976C77.6789 55.9199 76.625 55.3631 75.8346 54.6168L73.6654 52.5674L68.0037 47.2305C67.8076 47.0409 67.924 46.7921 68.2059 46.8218L76.0552 47.6806L79.125 48.0183C80.1728 48.1308 81.2451 48.5336 82.0478 49.2088C83.7206 50.6245 83.2733 52.0579 82.5013 53.6335C81.7292 55.2091 81.0552 56.4649 78.7819 56.0976Z" fill="#BF83B3"/>
<path fill-rule="evenodd" clip-rule="evenodd" d="M70.4438 66.5024C69.6717 65.3177 69.206 63.8606 69.0957 62.4864L68.7894 58.7132L67.9867 48.8806C67.956 48.537 68.2379 48.4363 68.4401 48.7207L74.249 56.8178L76.5161 59.9808C77.2943 61.0648 77.8826 62.4094 78.0541 63.7362C78.4095 66.5083 77.0063 67.2961 75.2477 67.9003C73.4891 68.5045 72.0308 68.9428 70.4377 66.4965L70.4438 66.5024Z" fill="#BF83B3"/>
<path fill-rule="evenodd" clip-rule="evenodd" d="M64.8112 60.9093C65.5464 60.0978 66.006 59.0257 66.1286 57.9654L66.4717 55.0511L67.3663 47.4575C67.3969 47.1909 67.1396 47.0725 66.9435 47.262L61.4227 52.7233L59.2658 54.8616C58.5305 55.5901 57.9606 56.5556 57.7768 57.5745C57.403 59.695 58.6959 60.5302 60.3197 61.2765C61.9435 62.0228 63.2915 62.5915 64.8112 60.9152V60.9093Z" fill="#BF83B3"/>
<path fill-rule="evenodd" clip-rule="evenodd" d="M58.9967 50.5184C59.7013 50.5598 60.4305 50.3703 61.0249 50.0208L62.6609 49.0612L66.9256 46.5735C67.0727 46.4846 67.0359 46.3188 66.8644 46.2951L61.9195 45.7324L59.9893 45.5132C59.3276 45.4362 58.6106 45.5369 58.0163 45.839C56.7785 46.4728 56.8398 47.4205 57.0849 48.4926C57.33 49.5647 57.5506 50.4295 59.0028 50.5184H58.9967Z" fill="#BF83B3"/>
<path fill-rule="evenodd" clip-rule="evenodd" d="M88.9249 31.9919C89.219 32.4125 89.3661 32.9396 89.36 33.449L89.3416 34.8351L89.2987 38.4424C89.2987 38.5668 89.17 38.6082 89.0903 38.5075L86.8354 35.6347L85.9531 34.5093C85.6528 34.1243 85.4445 33.6386 85.42 33.1529C85.3771 32.14 86.0266 31.8201 86.8354 31.5654C87.6443 31.3107 88.306 31.1212 88.9126 31.9919H88.9249Z" fill="#BF83B3"/>
<path fill-rule="evenodd" clip-rule="evenodd" d="M98.0671 31.6791C97.8037 32.4491 97.2583 33.1362 96.5966 33.616L94.7767 34.9369L90.0463 38.3783C89.8808 38.4968 89.7031 38.3783 89.7583 38.1888L91.3085 32.6682L91.9152 30.5122C92.1235 29.7777 92.5524 29.055 93.159 28.5575C94.4336 27.5209 95.4814 28.0066 96.5966 28.7411C97.7118 29.4756 98.6002 30.0975 98.0549 31.6791H98.0671Z" fill="#BF83B3"/>
<path fill-rule="evenodd" clip-rule="evenodd" d="M105.083 38.834C104.085 39.2487 102.92 39.4204 101.854 39.3434L98.9313 39.1302L91.3149 38.5852C91.0453 38.5675 91.0024 38.3542 91.2475 38.2417L98.1041 35.0076L100.788 33.7459C101.707 33.3135 102.804 33.047 103.839 33.0766C106.002 33.1358 106.444 34.2316 106.707 35.5584C106.971 36.8853 107.142 37.9751 105.083 38.8399V38.834Z" fill="#BF83B3"/>
<path fill-rule="evenodd" clip-rule="evenodd" d="M100.156 42.2229C99.6167 41.6069 98.8508 41.1567 98.0481 40.9435L95.8544 40.3689L90.1436 38.8644C89.9414 38.8111 89.825 38.9829 89.9476 39.1428L93.5015 43.7156L94.8924 45.5044C95.3704 46.1145 96.0383 46.6358 96.7981 46.8786C98.379 47.388 99.1633 46.5588 99.9231 45.4807C100.683 44.4027 101.265 43.5023 100.156 42.2288V42.2229Z" fill="#BF83B3"/>
<path fill-rule="evenodd" clip-rule="evenodd" d="M91.5405 45.1981C91.6508 44.7006 91.5895 44.1556 91.3873 43.6936L90.842 42.4142L89.4204 39.0794C89.3714 38.9609 89.2366 38.9727 89.1998 39.0912L88.2072 42.5623L87.8211 43.9187C87.6863 44.3807 87.6802 44.9079 87.8457 45.364C88.1888 46.3236 88.918 46.3828 89.7697 46.3354C90.6214 46.288 91.3077 46.2229 91.5405 45.1981Z" fill="#BF83B3"/>
<path fill-rule="evenodd" clip-rule="evenodd" d="M105.193 19.3852C105.53 19.2371 105.928 19.2015 106.283 19.2726L107.27 19.4503L109.837 19.9183C109.929 19.936 109.941 20.0249 109.862 20.0663L107.54 21.2214L106.633 21.6716C106.32 21.8256 105.953 21.9085 105.603 21.8611C104.874 21.7663 104.727 21.2925 104.641 20.7238C104.555 20.1552 104.5 19.6873 105.199 19.3852H105.193Z" fill="#BF83B3"/>
<path fill-rule="evenodd" clip-rule="evenodd" d="M106.075 13.2502C106.59 13.5167 107.019 13.9669 107.282 14.4644L108.005 15.8386L109.893 19.4104C109.96 19.5348 109.856 19.6414 109.721 19.5822L105.965 17.8763L104.5 17.2069C103.998 16.9818 103.532 16.6087 103.257 16.1407C102.668 15.1634 103.146 14.5237 103.802 13.8662C104.458 13.2087 105.015 12.6934 106.081 13.2442L106.075 13.2502Z" fill="#BF83B3"/>
<path fill-rule="evenodd" clip-rule="evenodd" d="M112.031 9.42946C112.209 10.1462 112.185 10.9458 112.001 11.6448L111.498 13.5698L110.187 18.5869C110.138 18.7646 109.985 18.7646 109.936 18.5869L108.459 13.6172L107.883 11.6744C107.687 11.011 107.626 10.2469 107.773 9.55977C108.079 8.12633 108.913 7.96048 109.893 7.94271C110.873 7.92494 111.676 7.94271 112.038 9.42354L112.031 9.42946Z" fill="#BF83B3"/>
<path fill-rule="evenodd" clip-rule="evenodd" d="M113.856 13.1304C113.348 13.4147 112.937 13.8708 112.692 14.3802L112.018 15.7722L110.253 19.4031C110.192 19.5335 110.296 19.6342 110.431 19.569L114.126 17.7505L115.572 17.0398C116.068 16.7969 116.516 16.4119 116.785 15.9321C117.337 14.937 116.847 14.315 116.166 13.6753C115.486 13.0356 114.916 12.5381 113.869 13.1245L113.856 13.1304Z" fill="#BF83B3"/>
<path fill-rule="evenodd" clip-rule="evenodd" d="M114.936 19.2381C114.593 19.1019 114.2 19.0782 113.839 19.1552L112.859 19.3625L110.303 19.9075C110.211 19.9252 110.205 20.02 110.285 20.0556L112.644 21.1395L113.569 21.5601C113.882 21.7022 114.256 21.7733 114.605 21.72C115.334 21.6075 115.463 21.1277 115.53 20.5531C115.597 19.9786 115.634 19.5106 114.93 19.2322L114.936 19.2381Z" fill="#BF83B3"/>
<path fill-rule="evenodd" clip-rule="evenodd" d="M167.032 46.6204C167.106 47.0232 167.032 47.4556 166.861 47.8228L166.377 48.8298L165.12 51.4597C165.078 51.5545 164.967 51.5427 164.943 51.442L164.269 48.6225L164.005 47.5207C163.913 47.1417 163.926 46.7211 164.079 46.3598C164.391 45.6016 164.98 45.5779 165.654 45.6431C166.328 45.7082 166.885 45.7852 167.032 46.6145V46.6204Z" fill="#BF83B3"/>
<path fill-rule="evenodd" clip-rule="evenodd" d="M173.84 49.2909C173.386 49.7707 172.755 50.1024 172.106 50.2446L170.329 50.6355L165.696 51.6543C165.531 51.6899 165.445 51.5477 165.549 51.4233L168.558 47.8694L169.734 46.4833C170.139 46.0094 170.696 45.6126 171.315 45.4467C172.602 45.0913 173.203 45.7784 173.772 46.6669C174.342 47.5554 174.783 48.2958 173.846 49.285L173.84 49.2909Z" fill="#BF83B3"/>
<path fill-rule="evenodd" clip-rule="evenodd" d="M176.554 56.763C175.684 56.7512 174.771 56.5024 174.017 56.1115L171.946 55.0275L166.548 52.208C166.358 52.1073 166.4 51.9415 166.615 51.9356L172.742 51.7401L175.138 51.6631C175.959 51.6394 176.854 51.7875 177.601 52.137C179.164 52.8655 179.121 53.8073 178.864 54.8676C178.606 55.9279 178.361 56.7749 176.56 56.7571L176.554 56.763Z" fill="#BF83B3"/>
<path fill-rule="evenodd" clip-rule="evenodd" d="M171.792 57.6818C171.608 57.0599 171.198 56.4853 170.683 56.0766L169.274 54.9571L165.597 52.0428C165.469 51.9421 165.322 52.0251 165.358 52.185L166.406 56.663L166.817 58.4104C166.958 59.0086 167.276 59.601 167.748 60.0215C168.735 60.8982 169.592 60.5368 170.511 59.986C171.431 59.4351 172.166 58.9612 171.786 57.6759L171.792 57.6818Z" fill="#BF83B3"/>
<path fill-rule="evenodd" clip-rule="evenodd" d="M164.47 57.1304C164.721 56.7987 164.856 56.384 164.868 55.9753L164.905 54.8618L164.997 51.9653C164.997 51.8646 164.899 51.829 164.831 51.906L162.926 54.1332L162.178 55.0039C161.921 55.3001 161.737 55.6851 161.706 56.076C161.633 56.8875 162.147 57.1659 162.785 57.3969C163.422 57.6279 163.949 57.7997 164.47 57.1245V57.1304Z" fill="#BF83B3"/>
<path fill-rule="evenodd" clip-rule="evenodd" d="M101.94 54.5793C102.289 54.9287 102.516 55.3967 102.602 55.8646L102.822 57.1618L103.404 60.5381C103.423 60.6566 103.313 60.7158 103.221 60.6329L100.616 58.3169L99.5993 57.4106C99.25 57.1026 98.9743 56.682 98.8701 56.2319C98.6495 55.2901 99.2072 54.8873 99.9179 54.52C100.629 54.1528 101.217 53.8625 101.934 54.5793H101.94Z" fill="#BF83B3"/>
<path fill-rule="evenodd" clip-rule="evenodd" d="M110.42 52.8047C110.31 53.5629 109.918 54.2974 109.385 54.8542L107.914 56.3824L104.091 60.3628C103.956 60.505 103.772 60.4221 103.79 60.2325L104.281 54.8246L104.477 52.7099C104.544 51.9873 104.82 51.241 105.304 50.6783C106.315 49.5054 107.375 49.7898 108.545 50.2932C109.716 50.7967 110.653 51.235 110.42 52.8047Z" fill="#BF83B3"/>
<path fill-rule="evenodd" clip-rule="evenodd" d="M118.222 58.3493C117.364 58.9002 116.304 59.2497 115.293 59.3504L112.523 59.6288L105.311 60.3514C105.06 60.3751 104.98 60.1856 105.189 60.0434L111.034 55.9089L113.32 54.2919C114.104 53.741 115.078 53.3086 116.053 53.1724C118.081 52.8821 118.687 53.8299 119.165 55.0264C119.643 56.2229 119.986 57.218 118.216 58.3553L118.222 58.3493Z" fill="#BF83B3"/>
<path fill-rule="evenodd" clip-rule="evenodd" d="M114.202 62.3192C113.589 61.8276 112.799 61.5314 112.015 61.4663L109.864 61.2827L104.269 60.8029C104.073 60.7851 103.988 60.9628 104.135 61.0931L108.246 64.7892L109.852 66.2345C110.403 66.7262 111.12 67.1053 111.874 67.206C113.436 67.4251 114.031 66.5248 114.551 65.3934C115.072 64.2621 115.464 63.3321 114.202 62.3133V62.3192Z" fill="#BF83B3"/>
<path fill-rule="evenodd" clip-rule="evenodd" d="M106.677 66.4892C106.696 66.0034 106.543 65.5059 106.273 65.1031L105.538 63.9954L103.632 61.1108C103.565 61.0101 103.442 61.0397 103.43 61.1582L103.105 64.5641L102.976 65.8968C102.934 66.3529 103.019 66.8446 103.252 67.2473C103.742 68.0884 104.435 68.0233 105.219 67.8397C106.003 67.656 106.635 67.4843 106.677 66.4892Z" fill="#BF83B3"/>
<path fill-rule="evenodd" clip-rule="evenodd" d="M136.218 57.2479C136.72 57.5737 137.118 58.0713 137.339 58.6044L137.945 60.0793L139.532 63.9235C139.588 64.0597 139.471 64.1545 139.343 64.0834L135.648 61.9866L134.208 61.1691C133.718 60.8908 133.276 60.4643 133.031 59.9549C132.523 58.8946 133.074 58.2845 133.816 57.6685C134.557 57.0525 135.176 56.5727 136.218 57.242V57.2479Z" fill="#BF83B3"/>
<path fill-rule="evenodd" clip-rule="evenodd" d="M145.776 53.0445C145.843 53.9685 145.58 54.934 145.096 55.7218L143.766 57.8897L140.304 63.5465C140.182 63.7479 139.943 63.6946 139.912 63.4695L139.06 56.9538L138.729 54.4068C138.613 53.5361 138.742 52.5884 139.164 51.8006C140.047 50.1598 141.383 50.2368 142.896 50.5389C144.409 50.841 145.641 51.1312 145.782 53.0445H145.776Z" fill="#BF83B3"/>
<path fill-rule="evenodd" clip-rule="evenodd" d="M156.468 57.6694C155.598 58.5342 154.434 59.2095 153.27 59.5767L150.071 60.5896L141.738 63.2314C141.444 63.3262 141.303 63.1188 141.511 62.8938L147.326 56.5558L149.6 54.0799C150.378 53.2329 151.419 52.4806 152.535 52.0778C154.857 51.2308 155.825 52.1963 156.707 53.4994C157.59 54.8025 158.264 55.8865 156.468 57.6694Z" fill="#BF83B3"/>
<path fill-rule="evenodd" clip-rule="evenodd" d="M152.776 63.3492C151.924 62.9227 150.907 62.7687 149.963 62.8871L147.377 63.207L140.631 64.0244C140.392 64.054 140.343 64.285 140.551 64.4035L146.391 67.7561L148.676 69.0651C149.454 69.5153 150.404 69.7759 151.323 69.7167C153.229 69.5864 153.695 68.378 154.007 66.9091C154.32 65.4401 154.54 64.2436 152.782 63.3551L152.776 63.3492Z" fill="#BF83B3"/>
<path fill-rule="evenodd" clip-rule="evenodd" d="M144.975 70.1541C144.87 69.5796 144.552 69.0287 144.129 68.62L142.971 67.4946L139.95 64.5566C139.846 64.4559 139.705 64.5211 139.723 64.6633L140.238 68.774L140.44 70.3792C140.508 70.9301 140.74 71.4869 141.12 71.9074C141.923 72.7782 142.726 72.5353 143.602 72.1207C144.478 71.7061 145.183 71.3507 144.962 70.1601L144.975 70.1541Z" fill="#BF83B3"/>
<path fill-rule="evenodd" clip-rule="evenodd" d="M127.504 83.8639C127.057 84.089 126.524 84.1719 126.028 84.1127L124.667 83.9528L121.126 83.5381C121.003 83.5263 120.972 83.4019 121.083 83.3367L124.14 81.5657L125.335 80.8727C125.746 80.6357 126.242 80.4936 126.72 80.5291C127.719 80.5943 127.964 81.228 128.135 81.9981C128.307 82.7681 128.417 83.396 127.498 83.8639H127.504Z" fill="#BF83B3"/>
<path fill-rule="evenodd" clip-rule="evenodd" d="M126.859 92.2933C126.13 91.9734 125.511 91.3989 125.107 90.7414L123.998 88.9348L121.112 84.2317C121.007 84.0658 121.142 83.9178 121.326 83.9888L126.589 85.9909L128.648 86.7728C129.353 87.0393 130.015 87.5073 130.444 88.1233C131.332 89.4027 130.744 90.3149 129.904 91.2626C129.09 92.1867 128.36 92.9626 126.859 92.2992V92.2933Z" fill="#BF83B3"/>
<path fill-rule="evenodd" clip-rule="evenodd" d="M119.096 97.9908C118.789 97.0312 118.747 95.9413 118.936 94.9699L119.451 92.3044L120.787 85.3682C120.836 85.1254 121.044 85.1076 121.13 85.3386L123.593 91.9786L124.555 94.573C124.886 95.4615 125.033 96.4981 124.899 97.4458C124.611 99.4242 123.495 99.7204 122.16 99.8211C120.824 99.9218 119.739 99.9632 119.102 97.9849L119.096 97.9908Z" fill="#BF83B3"/>
<path fill-rule="evenodd" clip-rule="evenodd" d="M116.277 93.1068C116.938 92.6744 117.465 92.0169 117.753 91.3061L118.55 89.3514L120.627 84.2633C120.701 84.0856 120.547 83.9553 120.376 84.056L115.511 86.84L113.611 87.9298C112.962 88.303 112.38 88.8657 112.061 89.535C111.399 90.9329 112.128 91.7444 113.109 92.55C114.089 93.3556 114.91 93.9894 116.283 93.1068H116.277Z" fill="#BF83B3"/>
<path fill-rule="evenodd" clip-rule="evenodd" d="M114.255 84.8875C114.733 85.0415 115.272 85.0415 115.75 84.9053L117.067 84.5381L120.493 83.5844C120.615 83.5489 120.621 83.4245 120.505 83.383L117.196 82.1095L115.903 81.612C115.462 81.4402 114.947 81.3809 114.475 81.4816C113.495 81.7008 113.36 82.3642 113.323 83.1461C113.287 83.928 113.274 84.5677 114.261 84.8935L114.255 84.8875Z" fill="#BF83B3"/>
<path d="M158.534 59.2203C151.744 64.9649 143.823 68.2032 135.562 69.3509C141.052 70.083 146.389 71.9068 150.773 75.2258C157.286 80.2074 160.732 88.5575 159.781 96.4858C159.331 84.612 152.471 75.3685 140.75 71.6153C138.114 70.7343 135.401 70.1264 132.643 69.6797C122.626 70.4862 112.256 68.3459 102.914 64.0158C105.756 66.4042 108.443 68.9725 110.905 71.7083C118.929 80.6602 124.767 91.4794 127.525 103.024C128.303 106.306 128.875 109.638 128.991 113C128.811 111.331 128.496 109.681 128.129 108.049C123.745 88.5141 111.002 71.1562 93.7713 60.1819C93.5141 60.002 92.9741 59.6546 92.704 59.4995C91.6432 58.8729 90.4988 58.1347 89.4315 57.5329C88.7114 57.1421 86.7762 56.0751 86.0754 55.6966C85.5096 55.4237 84.3652 54.8467 83.7995 54.5676C57.6129 42.3277 26.1865 45.3303 0 56.2612C19.7958 46.1492 44.4714 41.819 66.8197 46.3973C78.0067 45.0139 89.0972 40.9939 97.2238 33.3324C106.495 24.641 109.825 12.1778 110.327 0C110.796 6.16646 110.25 12.4694 108.392 18.4808C103.19 35.9317 86.294 45.6839 68.4013 46.7385C75.3899 48.308 82.1278 50.7647 88.4028 54.2077C90.4216 55.2872 92.6719 56.6458 94.6007 57.8555C95.3207 58.3456 97.1145 59.5615 97.841 60.0516C99.0755 60.9449 100.284 61.8755 101.474 62.8309C119.527 70.0706 140.422 71.0507 156.631 58.997C162.263 54.8964 166.943 49.7039 171 44.1268C167.772 49.7721 163.606 55.0018 158.54 59.2327L158.534 59.2203Z" fill="#BF83B3"/>
<g opacity="0.8">
<path d="M25.0188 87.8446V87.4246C22.5888 87.0046 22.4088 86.7046 22.3788 83.7046L22.2888 72.2746C22.2888 69.4546 22.5288 69.2146 25.0188 68.7946V68.3446H19.6788L12.9888 82.8046L6.62875 68.3446H1.16875V68.7946C3.62875 69.0646 3.98875 70.0546 3.95875 70.9846C3.26875 82.5646 3.17875 84.2146 3.02875 85.2946C2.84875 86.6146 2.27875 87.0946 0.35875 87.4246V87.8446H7.22875V87.4246C5.06875 87.0346 4.34875 86.6746 4.31875 85.2346C4.28875 84.1546 4.31875 81.3946 4.73875 71.4346C7.37875 77.7346 11.0088 86.6146 11.4888 87.8446H11.8788C12.3888 86.5546 16.9187 76.3246 19.2888 70.9546L19.1988 83.7046C19.1688 86.7646 19.0488 87.0046 16.8288 87.4246V87.8446H25.0188ZM46.1003 68.3446H39.9803V68.7946C42.3503 69.2446 42.4103 69.6346 41.8103 70.9246C40.9703 72.7546 39.2003 76.2346 38.2103 78.2146C37.1003 76.0546 35.5103 73.0546 34.2503 70.5946C33.7103 69.4846 33.8003 69.2146 35.7503 68.7946V68.3446H28.0703V68.7946C29.7803 69.1246 30.0803 69.3646 31.3403 71.6146C32.7503 74.1646 34.4903 77.4346 35.0903 78.7246C35.3603 79.2646 35.4503 79.6246 35.4503 80.1946V83.9146C35.4503 86.7646 35.1503 87.0646 32.8703 87.4246V87.8446H41.2703V87.4246C38.8703 86.9746 38.6303 86.8246 38.6303 83.9146L38.6603 79.7746C38.6603 79.2346 38.7803 78.9046 38.9903 78.4846C40.3103 75.8746 41.4803 73.5946 42.8303 71.2246C43.7903 69.5446 44.1203 69.1546 46.1003 68.7946V68.3446ZM12.1188 98.4546C11.9088 96.9546 11.7288 95.4546 11.6088 94.3746C10.9788 94.2846 9.68875 93.9246 7.85875 93.9246C3.92875 93.9246 1.70875 96.2346 1.70875 99.2946C1.70875 102.475 4.25875 103.945 6.53875 105.355C8.66875 106.705 9.89875 107.905 9.89875 109.945C9.89875 112.045 8.84875 113.605 6.65875 113.605C3.71875 113.605 2.24875 111.055 1.61875 109.045L1.13875 109.135C1.19875 109.735 1.67875 113.035 1.82875 113.575C3.23875 113.965 4.55875 114.295 6.26875 114.295C10.0188 114.295 12.8988 111.925 12.8988 108.505C12.8988 105.265 10.4688 103.765 7.97875 102.265C5.54875 100.825 4.37875 99.8946 4.37875 97.8846C4.37875 95.9646 5.42875 94.6446 7.40875 94.6446C9.86875 94.6446 11.0088 96.5946 11.6388 98.5446L12.1188 98.4546ZM36.4769 94.3446H29.8169V94.7946C32.2469 95.1246 32.7269 95.5446 32.8469 97.0446C32.9069 97.9746 32.9669 99.0546 32.9669 101.455V104.935C32.9669 110.185 31.7969 112.765 27.8069 112.765C24.1469 112.765 22.3469 110.425 22.3469 106.105V98.3646C22.3469 95.4546 22.5269 95.2446 24.7469 94.7946V94.3446H16.7669V94.7946C18.9569 95.2146 19.1969 95.4546 19.1969 98.3646V106.165C19.1969 109.375 19.8269 111.355 21.5369 112.765C22.8569 113.845 24.7469 114.265 26.5469 114.265C28.7969 114.265 30.6569 113.725 31.9469 112.345C33.6269 110.575 33.9569 108.145 33.9569 105.115V101.455C33.9569 99.0546 34.0169 97.9446 34.0769 97.1046C34.1669 95.8746 34.3469 95.2446 36.4769 94.7946V94.3446ZM48.4284 113.845V113.425C46.1784 112.975 45.9084 112.825 45.9084 110.155V98.0346C45.9084 95.3346 46.1784 95.2146 48.4284 94.7946V94.3446H40.2984V94.7946C42.5184 95.1546 42.7584 95.3646 42.7584 98.0346V110.155C42.7584 112.795 42.5184 113.035 40.2984 113.425V113.845H48.4284ZM69.107 98.6646C68.927 97.0746 68.867 95.0046 68.867 93.7446H68.477C68.027 94.2546 67.607 94.3446 66.797 94.3446H54.587C53.657 94.3446 53.267 94.3446 52.817 93.7446H52.427C52.367 95.2746 52.187 97.1946 52.037 98.7546H52.547C52.877 97.7346 53.267 96.8046 53.717 96.2046C54.137 95.6046 54.467 95.1846 55.877 95.1846H58.997V110.305C58.997 112.795 58.727 112.945 56.387 113.425V113.845H64.847V113.425C62.417 113.035 62.147 112.765 62.147 110.305V95.1846H64.877C66.647 95.1846 66.947 95.4546 67.487 96.2346C67.937 96.8046 68.327 97.6746 68.627 98.7246L69.107 98.6646ZM87.7991 109.225C87.3491 110.275 86.9291 111.175 86.4191 111.775C85.6691 112.705 85.2491 113.005 83.5991 113.005H81.4091C79.6091 112.975 79.0091 112.705 79.0091 110.545V104.005H82.2491C84.4391 104.005 84.5591 104.695 85.0091 106.525H85.4591V100.585H85.0091C84.6791 102.355 84.4691 103.105 82.2191 103.105H79.0091V96.0246C79.0091 95.3346 79.1291 95.2146 79.8191 95.2146H82.4291C84.1991 95.2146 84.7391 95.3946 85.3091 96.1146C85.8191 96.8046 86.2391 97.8846 86.4491 98.6346L86.9291 98.5446C86.7791 97.4046 86.6591 95.3946 86.6591 94.2846C86.2991 94.3446 85.2191 94.3446 82.3991 94.3446H73.5191V94.7946C75.6791 95.1546 75.8591 95.3346 75.8591 97.9746V110.305C75.8591 112.885 75.6491 113.005 73.0691 113.425V113.845H87.3491C87.5291 113.065 88.0691 110.335 88.2191 109.315L87.7991 109.225ZM103.894 98.4546C103.684 96.9546 103.504 95.4546 103.384 94.3746C102.754 94.2846 101.464 93.9246 99.6341 93.9246C95.7041 93.9246 93.4841 96.2346 93.4841 99.2946C93.4841 102.475 96.0341 103.945 98.3141 105.355C100.444 106.705 101.674 107.905 101.674 109.945C101.674 112.045 100.624 113.605 98.4341 113.605C95.4941 113.605 94.0241 111.055 93.3941 109.045L92.9141 109.135C92.9741 109.735 93.4541 113.035 93.6041 113.575C95.0141 113.965 96.3341 114.295 98.0441 114.295C101.794 114.295 104.674 111.925 104.674 108.505C104.674 105.265 102.244 103.765 99.7541 102.265C97.3241 100.825 96.1541 99.8946 96.1541 97.8846C96.1541 95.9646 97.2041 94.6446 99.1841 94.6446C101.644 94.6446 102.784 96.5946 103.414 98.5446L103.894 98.4546Z" fill="#F4F4F4"/>
<path d="M3.58975 125.966C3.80508 126 4.00058 126.088 4.17625 126.229C4.35758 126.371 4.49925 126.547 4.60125 126.756C4.70892 126.966 4.76275 127.19 4.76275 127.428C4.76275 127.728 4.68625 128 4.53325 128.244C4.38025 128.482 4.15642 128.672 3.86175 128.813C3.57275 128.949 3.22992 129.017 2.83325 129.017H0.62325V123.093H2.74825C3.15058 123.093 3.49342 123.161 3.77675 123.297C4.06008 123.427 4.27258 123.606 4.41425 123.832C4.55592 124.059 4.62675 124.314 4.62675 124.597C4.62675 124.949 4.53042 125.241 4.33775 125.473C4.15075 125.7 3.90142 125.864 3.58975 125.966ZM1.39675 125.651H2.69725C3.05992 125.651 3.34042 125.566 3.53875 125.396C3.73708 125.226 3.83625 124.991 3.83625 124.691C3.83625 124.391 3.73708 124.155 3.53875 123.985C3.34042 123.815 3.05425 123.73 2.68025 123.73H1.39675V125.651ZM2.76525 128.38C3.15058 128.38 3.45092 128.289 3.66625 128.108C3.88158 127.927 3.98925 127.674 3.98925 127.351C3.98925 127.023 3.87592 126.765 3.64925 126.578C3.42258 126.385 3.11942 126.289 2.73975 126.289H1.39675V128.38H2.76525ZM12.7041 123.093L10.7746 126.782V129.017H10.0011V126.782L8.06314 123.093H8.92164L10.3836 126.093L11.8456 123.093H12.7041ZM22.6796 128.388H24.7536V129.017H21.9061V123.093H22.6796V128.388ZM32.4771 127.7H29.8931L29.4171 129.017H28.6011L30.7431 123.127H31.6356L33.7691 129.017H32.9531L32.4771 127.7ZM32.2561 127.071L31.1851 124.079L30.1141 127.071H32.2561ZM43.4797 126.051C43.4797 125.473 43.6101 124.954 43.8707 124.495C44.1314 124.031 44.4856 123.668 44.9332 123.407C45.3866 123.147 45.8881 123.016 46.4377 123.016C47.0837 123.016 47.6476 123.172 48.1292 123.484C48.6109 123.796 48.9622 124.238 49.1832 124.81H48.2567C48.0924 124.453 47.8544 124.178 47.5427 123.985C47.2367 123.793 46.8684 123.696 46.4377 123.696C46.0241 123.696 45.6529 123.793 45.3242 123.985C44.9956 124.178 44.7377 124.453 44.5507 124.81C44.3637 125.161 44.2702 125.575 44.2702 126.051C44.2702 126.521 44.3637 126.935 44.5507 127.292C44.7377 127.643 44.9956 127.915 45.3242 128.108C45.6529 128.301 46.0241 128.397 46.4377 128.397C46.8684 128.397 47.2367 128.303 47.5427 128.116C47.8544 127.924 48.0924 127.649 48.2567 127.292H49.1832C48.9622 127.859 48.6109 128.298 48.1292 128.609C47.6476 128.915 47.0837 129.068 46.4377 129.068C45.8881 129.068 45.3866 128.941 44.9332 128.686C44.4856 128.425 44.1314 128.065 43.8707 127.606C43.6101 127.147 43.4797 126.629 43.4797 126.051ZM56.4206 129.077C55.871 129.077 55.3695 128.949 54.9161 128.694C54.4628 128.434 54.103 128.074 53.8366 127.615C53.576 127.15 53.4456 126.629 53.4456 126.051C53.4456 125.473 53.576 124.954 53.8366 124.495C54.103 124.031 54.4628 123.671 54.9161 123.416C55.3695 123.155 55.871 123.025 56.4206 123.025C56.976 123.025 57.4803 123.155 57.9336 123.416C58.387 123.671 58.744 124.028 59.0046 124.487C59.2653 124.946 59.3956 125.467 59.3956 126.051C59.3956 126.635 59.2653 127.156 59.0046 127.615C58.744 128.074 58.387 128.434 57.9336 128.694C57.4803 128.949 56.976 129.077 56.4206 129.077ZM56.4206 128.405C56.8343 128.405 57.2055 128.309 57.5341 128.116C57.8685 127.924 58.1291 127.649 58.3161 127.292C58.5088 126.935 58.6051 126.521 58.6051 126.051C58.6051 125.575 58.5088 125.161 58.3161 124.81C58.1291 124.453 57.8713 124.178 57.5426 123.985C57.214 123.793 56.84 123.696 56.4206 123.696C56.0013 123.696 55.6273 123.793 55.2986 123.985C54.97 124.178 54.7093 124.453 54.5166 124.81C54.3296 125.161 54.2361 125.575 54.2361 126.051C54.2361 126.521 54.3296 126.935 54.5166 127.292C54.7093 127.649 54.97 127.924 55.2986 128.116C55.633 128.309 56.007 128.405 56.4206 128.405ZM68.4748 129.017H67.7013L64.5903 124.3V129.017H63.8168V123.084H64.5903L67.7013 127.793V123.084H68.4748V129.017ZM75.0378 123.093C75.6838 123.093 76.242 123.215 76.7123 123.458C77.1883 123.696 77.551 124.039 77.8003 124.487C78.0553 124.935 78.1828 125.462 78.1828 126.068C78.1828 126.674 78.0553 127.201 77.8003 127.649C77.551 128.091 77.1883 128.431 76.7123 128.669C76.242 128.901 75.6838 129.017 75.0378 129.017H73.1933V123.093H75.0378ZM75.0378 128.38C75.8028 128.38 76.3865 128.179 76.7888 127.776C77.1912 127.368 77.3923 126.799 77.3923 126.068C77.3923 125.331 77.1883 124.756 76.7803 124.342C76.378 123.929 75.7972 123.722 75.0378 123.722H73.9668V128.38H75.0378ZM83.3766 123.722V125.702H85.5356V126.34H83.3766V128.38H85.7906V129.017H82.6031V123.084H85.7906V123.722H83.3766ZM92.2395 129.077C91.8485 129.077 91.4972 129.009 91.1855 128.873C90.8795 128.731 90.6387 128.539 90.463 128.295C90.2873 128.046 90.1967 127.759 90.191 127.436H91.0155C91.0438 127.714 91.1572 127.949 91.3555 128.142C91.5595 128.329 91.8542 128.422 92.2395 128.422C92.6078 128.422 92.8968 128.332 93.1065 128.15C93.3218 127.963 93.4295 127.725 93.4295 127.436C93.4295 127.21 93.3672 127.026 93.2425 126.884C93.1178 126.742 92.962 126.635 92.775 126.561C92.588 126.487 92.3358 126.408 92.0185 126.323C91.6275 126.221 91.313 126.119 91.075 126.017C90.8427 125.915 90.6415 125.756 90.4715 125.541C90.3072 125.32 90.225 125.025 90.225 124.657C90.225 124.334 90.3072 124.048 90.4715 123.798C90.6358 123.549 90.8653 123.356 91.16 123.22C91.4603 123.084 91.8032 123.016 92.1885 123.016C92.7438 123.016 93.1972 123.155 93.5485 123.433C93.9055 123.711 94.1067 124.079 94.152 124.538H93.302C93.2737 124.311 93.1547 124.113 92.945 123.943C92.7353 123.767 92.4577 123.679 92.112 123.679C91.789 123.679 91.5255 123.764 91.3215 123.934C91.1175 124.099 91.0155 124.331 91.0155 124.631C91.0155 124.847 91.075 125.022 91.194 125.158C91.3187 125.294 91.4688 125.399 91.6445 125.473C91.8258 125.541 92.078 125.62 92.401 125.711C92.792 125.819 93.1065 125.926 93.3445 126.034C93.5825 126.136 93.7865 126.297 93.9565 126.518C94.1265 126.734 94.2115 127.028 94.2115 127.402C94.2115 127.691 94.135 127.963 93.982 128.218C93.829 128.473 93.6023 128.68 93.302 128.839C93.0017 128.998 92.6475 129.077 92.2395 129.077ZM102.252 127.7H99.6678L99.1918 129.017H98.3758L100.518 123.127H101.41L103.544 129.017H102.728L102.252 127.7ZM102.031 127.071L100.96 124.079L99.8888 127.071H102.031Z" fill="#F4F4F4"/>
</g>
</svg>
