<svg width="441" height="146" viewBox="0 0 441 146" fill="none" xmlns="http://www.w3.org/2000/svg">
<path d="M10.752 15.392V60H4.928V15.392H10.752ZM55.75 60H49.926L26.502 24.48V60H20.678V15.328H26.502L49.926 50.784V15.328H55.75V60ZM90.894 15.392V20.128H71.502V35.168H87.246V39.904H71.502V60H65.678V15.392H90.894ZM118.152 60.448C114.013 60.448 110.237 59.488 106.824 57.568C103.411 55.6053 100.701 52.896 98.696 49.44C96.7333 45.9413 95.752 42.016 95.752 37.664C95.752 33.312 96.7333 29.408 98.696 25.952C100.701 22.4533 103.411 19.744 106.824 17.824C110.237 15.8613 114.013 14.88 118.152 14.88C122.333 14.88 126.131 15.8613 129.544 17.824C132.957 19.744 135.645 22.432 137.608 25.888C139.571 29.344 140.552 33.2693 140.552 37.664C140.552 42.0587 139.571 45.984 137.608 49.44C135.645 52.896 132.957 55.6053 129.544 57.568C126.131 59.488 122.333 60.448 118.152 60.448ZM118.152 55.392C121.267 55.392 124.061 54.6667 126.536 53.216C129.053 51.7653 131.016 49.696 132.424 47.008C133.875 44.32 134.6 41.2053 134.6 37.664C134.6 34.08 133.875 30.9653 132.424 28.32C131.016 25.632 129.075 23.5627 126.6 22.112C124.125 20.6613 121.309 19.936 118.152 19.936C114.995 19.936 112.179 20.6613 109.704 22.112C107.229 23.5627 105.267 25.632 103.816 28.32C102.408 30.9653 101.704 34.08 101.704 37.664C101.704 41.2053 102.408 44.32 103.816 47.008C105.267 49.696 107.229 51.7653 109.704 53.216C112.221 54.6667 115.037 55.392 118.152 55.392ZM171.729 60L161.105 41.76H154.065V60H148.241V15.392H162.641C166.011 15.392 168.849 15.968 171.153 17.12C173.499 18.272 175.249 19.8293 176.401 21.792C177.553 23.7547 178.129 25.9947 178.129 28.512C178.129 31.584 177.233 34.2933 175.441 36.64C173.691 38.9867 171.046 40.544 167.505 41.312L178.705 60H171.729ZM154.065 37.088H162.641C165.798 37.088 168.166 36.32 169.745 34.784C171.323 33.2053 172.113 31.1147 172.113 28.512C172.113 25.8667 171.323 23.8187 169.745 22.368C168.209 20.9173 165.841 20.192 162.641 20.192H154.065V37.088ZM232.426 15.712V60H226.602V26.976L211.882 60H207.786L193.002 26.912V60H187.178V15.712H193.45L209.834 52.32L226.218 15.712H232.426ZM268.671 50.08H249.215L245.631 60H239.487L255.615 15.648H262.335L278.399 60H272.255L268.671 50.08ZM267.007 45.344L258.943 22.816L250.879 45.344H267.007ZM283.252 37.664C283.252 33.312 284.233 29.408 286.196 25.952C288.159 22.4533 290.825 19.7227 294.196 17.76C297.609 15.7973 301.385 14.816 305.524 14.816C310.388 14.816 314.633 15.9893 318.26 18.336C321.887 20.6827 324.532 24.0107 326.196 28.32H319.22C317.983 25.632 316.191 23.5627 313.844 22.112C311.54 20.6613 308.767 19.936 305.524 19.936C302.409 19.936 299.615 20.6613 297.14 22.112C294.665 23.5627 292.724 25.632 291.316 28.32C289.908 30.9653 289.204 34.08 289.204 37.664C289.204 41.2053 289.908 44.32 291.316 47.008C292.724 49.6533 294.665 51.7013 297.14 53.152C299.615 54.6027 302.409 55.328 305.524 55.328C308.767 55.328 311.54 54.624 313.844 53.216C316.191 51.7653 317.983 49.696 319.22 47.008H326.196C324.532 51.2747 321.887 54.5813 318.26 56.928C314.633 59.232 310.388 60.384 305.524 60.384C301.385 60.384 297.609 59.424 294.196 57.504C290.825 55.5413 288.159 52.832 286.196 49.376C284.233 45.92 283.252 42.016 283.252 37.664ZM340.69 15.392V60H334.866V15.392H340.69ZM370.84 60.448C366.701 60.448 362.925 59.488 359.512 57.568C356.098 55.6053 353.389 52.896 351.384 49.44C349.421 45.9413 348.44 42.016 348.44 37.664C348.44 33.312 349.421 29.408 351.384 25.952C353.389 22.4533 356.098 19.744 359.512 17.824C362.925 15.8613 366.701 14.88 370.84 14.88C375.021 14.88 378.818 15.8613 382.232 17.824C385.645 19.744 388.333 22.432 390.296 25.888C392.258 29.344 393.24 33.2693 393.24 37.664C393.24 42.0587 392.258 45.984 390.296 49.44C388.333 52.896 385.645 55.6053 382.232 57.568C378.818 59.488 375.021 60.448 370.84 60.448ZM370.84 55.392C373.954 55.392 376.749 54.6667 379.224 53.216C381.741 51.7653 383.704 49.696 385.112 47.008C386.562 44.32 387.288 41.2053 387.288 37.664C387.288 34.08 386.562 30.9653 385.112 28.32C383.704 25.632 381.762 23.5627 379.288 22.112C376.813 20.6613 373.997 19.936 370.84 19.936C367.682 19.936 364.866 20.6613 362.392 22.112C359.917 23.5627 357.954 25.632 356.504 28.32C355.096 30.9653 354.392 34.08 354.392 37.664C354.392 41.2053 355.096 44.32 356.504 47.008C357.954 49.696 359.917 51.7653 362.392 53.216C364.909 54.6667 367.725 55.392 370.84 55.392ZM377.24 5.728L363.608 13.024V8.672L377.24 0.671997V5.728ZM436 60H430.176L406.752 24.48V60H400.928V15.328H406.752L430.176 50.784V15.328H436V60ZM96.416 132L85.792 113.76H78.752V132H72.928V87.392H87.328C90.6987 87.392 93.536 87.968 95.84 89.12C98.1867 90.272 99.936 91.8293 101.088 93.792C102.24 95.7547 102.816 97.9947 102.816 100.512C102.816 103.584 101.92 106.293 100.128 108.64C98.3787 110.987 95.7333 112.544 92.192 113.312L103.392 132H96.416ZM78.752 109.088H87.328C90.4853 109.088 92.8533 108.32 94.432 106.784C96.0107 105.205 96.8 103.115 96.8 100.512C96.8 97.8667 96.0107 95.8187 94.432 94.368C92.896 92.9173 90.528 92.192 87.328 92.192H78.752V109.088ZM117.69 92.128V107.04H133.946V111.84H117.69V127.2H135.866V132H111.866V87.328H135.866V92.128H117.69ZM158.822 132.448C155.878 132.448 153.233 131.936 150.886 130.912C148.582 129.845 146.769 128.395 145.446 126.56C144.123 124.683 143.441 122.528 143.398 120.096H149.606C149.819 122.187 150.673 123.957 152.166 125.408C153.702 126.816 155.921 127.52 158.822 127.52C161.595 127.52 163.771 126.837 165.35 125.472C166.971 124.064 167.782 122.272 167.782 120.096C167.782 118.389 167.313 117.003 166.374 115.936C165.435 114.869 164.262 114.059 162.854 113.504C161.446 112.949 159.547 112.352 157.158 111.712C154.214 110.944 151.846 110.176 150.054 109.408C148.305 108.64 146.79 107.445 145.51 105.824C144.273 104.16 143.654 101.941 143.654 99.168C143.654 96.736 144.273 94.5813 145.51 92.704C146.747 90.8267 148.475 89.376 150.694 88.352C152.955 87.328 155.537 86.816 158.438 86.816C162.619 86.816 166.033 87.8613 168.678 89.952C171.366 92.0427 172.881 94.816 173.222 98.272H166.822C166.609 96.5653 165.713 95.072 164.134 93.792C162.555 92.4693 160.465 91.808 157.862 91.808C155.43 91.808 153.446 92.448 151.91 93.728C150.374 94.9653 149.606 96.7147 149.606 98.976C149.606 100.597 150.054 101.92 150.95 102.944C151.889 103.968 153.019 104.757 154.342 105.312C155.707 105.824 157.606 106.421 160.038 107.104C162.982 107.915 165.35 108.725 167.142 109.536C168.934 110.304 170.47 111.52 171.75 113.184C173.03 114.805 173.67 117.024 173.67 119.84C173.67 122.016 173.094 124.064 171.942 125.984C170.79 127.904 169.083 129.461 166.822 130.656C164.561 131.851 161.894 132.448 158.822 132.448ZM188.065 92.128V107.04H204.321V111.84H188.065V127.2H206.241V132H182.241V87.328H206.241V92.128H188.065ZM238.541 132L227.917 113.76H220.877V132H215.053V87.392H229.453C232.824 87.392 235.661 87.968 237.965 89.12C240.312 90.272 242.061 91.8293 243.213 93.792C244.365 95.7547 244.941 97.9947 244.941 100.512C244.941 103.584 244.045 106.293 242.253 108.64C240.504 110.987 237.858 112.544 234.317 113.312L245.517 132H238.541ZM220.877 109.088H229.453C232.61 109.088 234.978 108.32 236.557 106.784C238.136 105.205 238.925 103.115 238.925 100.512C238.925 97.8667 238.136 95.8187 236.557 94.368C235.021 92.9173 232.653 92.192 229.453 92.192H220.877V109.088ZM290.855 87.392L274.023 132H267.303L250.471 87.392H256.679L270.695 125.856L284.711 87.392H290.855ZM323.609 122.08H304.153L300.569 132H294.424L310.553 87.648H317.273L333.337 132H327.193L323.609 122.08ZM321.945 117.344L313.881 94.816L305.817 117.344H321.945ZM354.51 132.448C351.566 132.448 348.92 131.936 346.574 130.912C344.27 129.845 342.456 128.395 341.134 126.56C339.811 124.683 339.128 122.528 339.086 120.096H345.294C345.507 122.187 346.36 123.957 347.854 125.408C349.39 126.816 351.608 127.52 354.51 127.52C357.283 127.52 359.459 126.837 361.038 125.472C362.659 124.064 363.47 122.272 363.47 120.096C363.47 118.389 363 117.003 362.062 115.936C361.123 114.869 359.95 114.059 358.542 113.504C357.134 112.949 355.235 112.352 352.846 111.712C349.902 110.944 347.534 110.176 345.742 109.408C343.992 108.64 342.478 107.445 341.198 105.824C339.96 104.16 339.342 101.941 339.342 99.168C339.342 96.736 339.96 94.5813 341.198 92.704C342.435 90.8267 344.163 89.376 346.382 88.352C348.643 87.328 351.224 86.816 354.126 86.816C358.307 86.816 361.72 87.8613 364.366 89.952C367.054 92.0427 368.568 94.816 368.91 98.272H362.51C362.296 96.5653 361.4 95.072 359.822 93.792C358.243 92.4693 356.152 91.808 353.55 91.808C351.118 91.808 349.134 92.448 347.598 93.728C346.062 94.9653 345.294 96.7147 345.294 98.976C345.294 100.597 345.742 101.92 346.638 102.944C347.576 103.968 348.707 104.757 350.03 105.312C351.395 105.824 353.294 106.421 355.726 107.104C358.67 107.915 361.038 108.725 362.83 109.536C364.622 110.304 366.158 111.52 367.438 113.184C368.718 114.805 369.358 117.024 369.358 119.84C369.358 122.016 368.782 124.064 367.63 125.984C366.478 127.904 364.771 129.461 362.51 130.656C360.248 131.851 357.582 132.448 354.51 132.448Z" fill="#917145"/>
<path d="M222.452 46.48C219.934 46.48 217.95 47.7813 216.5 50.384C215.049 52.9867 214.324 55.76 214.324 58.704C214.324 59.5573 214.388 60.3467 214.516 61.072C215.796 60.8587 216.905 60.752 217.844 60.752C221.812 60.752 223.796 61.6907 223.796 63.568C223.796 64.2933 223.412 64.912 222.644 65.424C221.918 65.936 220.83 66.192 219.38 66.192C216.905 66.192 214.558 65.5093 212.34 64.144C210.633 65.68 209.289 67.7067 208.308 70.224C207.326 72.7413 206.836 75.472 206.836 78.416C206.836 82 207.753 84.7947 209.588 86.8C211.422 88.8053 214.132 89.808 217.716 89.808C222.153 89.808 225.908 88.656 228.979 86.352C232.094 84.048 233.652 81.4027 233.652 78.416C233.652 76.624 233.14 75.1947 232.116 74.128C231.092 73.0613 229.897 72.528 228.532 72.528C227.209 72.528 225.993 73.0613 224.884 74.128C223.774 75.152 223.22 76.4107 223.22 77.904C223.22 78.8427 223.476 79.632 223.988 80.272C224.5 80.912 225.182 81.232 226.036 81.232C227.657 81.232 228.788 80.4213 229.428 78.8L229.94 78.992C229.172 80.912 227.742 81.872 225.652 81.872C223.817 81.872 222.174 81.296 220.724 80.144C219.273 78.9493 218.548 77.328 218.548 75.28C218.548 71.3547 221.278 68.2613 226.74 66L234.036 62.992C239.582 60.688 243.529 58.7253 245.876 57.104C248.222 55.4827 249.396 53.6907 249.396 51.728C249.396 50.4907 248.948 49.488 248.052 48.72C247.198 47.952 246.196 47.568 245.044 47.568C244.02 47.568 243.145 47.8667 242.42 48.464C241.737 49.0187 241.396 49.7227 241.396 50.576C241.396 51.088 241.694 51.7707 242.292 52.624C242.932 53.4773 243.252 54.2453 243.252 54.928C243.252 55.7387 242.974 56.4 242.42 56.912C241.865 57.424 241.204 57.68 240.436 57.68C239.454 57.68 238.665 57.3173 238.068 56.592C237.513 55.8667 237.236 54.928 237.236 53.776C237.236 51.856 238.004 50.256 239.54 48.976C241.076 47.6533 242.804 46.992 244.724 46.992C246.601 46.992 248.137 47.6533 249.332 48.976C250.569 50.2987 251.188 52.048 251.188 54.224C251.188 57.4667 249.95 60.24 247.476 62.544C245.044 64.8053 241.63 66.832 237.236 68.624L228.979 71.952C230.345 72.0373 231.582 72.6773 232.692 73.872C233.801 75.0667 234.356 76.5813 234.356 78.416C234.356 79.7387 233.993 81.0827 233.268 82.448C232.585 83.8133 231.561 85.1147 230.196 86.352C228.83 87.5893 226.932 88.6133 224.5 89.424C222.068 90.192 219.316 90.576 216.244 90.576C210.825 90.576 206.302 89.3387 202.676 86.864C199.049 84.3467 197.236 80.9973 197.236 76.816C197.236 73.488 198.388 70.5653 200.692 68.048C203.038 65.5307 205.961 63.6107 209.46 62.288C207.966 60.7947 207.22 59.0027 207.22 56.912C207.22 53.9253 208.606 51.3227 211.38 49.104C214.153 46.8853 217.438 45.776 221.236 45.776C224.436 45.776 227.102 46.6293 229.236 48.336C231.412 50 232.5 51.8133 232.5 53.776C232.5 54.7147 232.222 55.504 231.668 56.144C231.113 56.7413 230.345 57.04 229.364 57.04C228.51 57.04 227.806 56.784 227.252 56.272C226.697 55.76 226.42 55.0347 226.42 54.096C226.42 53.712 226.484 53.1573 226.612 52.432C226.74 51.7067 226.804 51.1307 226.804 50.704C226.804 49.424 226.441 48.4 225.716 47.632C224.99 46.864 223.902 46.48 222.452 46.48ZM221.94 61.968C221.129 61.584 220.062 61.392 218.74 61.392C217.417 61.392 216.116 61.6907 214.836 62.288C215.646 64.5067 217.289 65.616 219.764 65.616C220.83 65.616 221.662 65.424 222.26 65.04C222.857 64.6133 223.156 64.1227 223.156 63.568C223.156 62.8853 222.75 62.352 221.94 61.968Z" fill="#333333"/>
</svg>
